<svg width="29" height="29" viewBox="0 0 29 29" fill="none" xmlns="http://www.w3.org/2000/svg">
<path d="M17.9519 20.6408C20.2033 20.3742 22.4153 19.8429 24.5422 19.0578C22.741 17.0626 21.7457 14.4692 21.7497 11.7813V10.875C21.7497 8.95218 20.9859 7.10811 19.6262 5.74848C18.2666 4.38884 16.4225 3.625 14.4997 3.625C12.5769 3.625 10.7328 4.38884 9.3732 5.74848C8.01356 7.10811 7.24972 8.95218 7.24972 10.875V11.7813C7.25337 14.4693 6.25766 17.0628 4.45605 19.0578C6.5501 19.8312 8.75772 20.3689 11.0475 20.6408M17.9519 20.6408C15.6585 20.9128 13.3409 20.9128 11.0475 20.6408M17.9519 20.6408C18.1261 21.1843 18.1694 21.7614 18.0783 22.3248C17.9873 22.8883 17.7644 23.4223 17.428 23.8834C17.0915 24.3445 16.6509 24.7196 16.1421 24.9782C15.6332 25.2368 15.0705 25.3716 14.4997 25.3716C13.9289 25.3716 13.3662 25.2368 12.8574 24.9782C12.3485 24.7196 11.9079 24.3445 11.5715 23.8834C11.235 23.4223 11.0122 22.8883 10.9211 22.3248C10.8301 21.7614 10.8734 21.1843 11.0475 20.6408" stroke="#604D19" stroke-width="1.5" stroke-linecap="round" stroke-linejoin="round"/>
</svg>
