<svg width="60" height="59" viewBox="0 0 60 59" fill="none" xmlns="http://www.w3.org/2000/svg">
<g filter="url(#filter0_i_99_267)">
<path d="M11.8 13.9V28.25C11.8 28.7833 11.9167 29.1667 12.15 29.4C12.4167 29.6333 12.9833 29.75 13.85 29.75H17.55V34.5H11.2C9.3 34.5 7.76667 34.3 6.6 33.9C5.46667 33.5 4.61667 32.8 4.05 31.8C3.51667 30.7667 3.16667 29.6667 3 28.5C2.86667 27.3333 2.8 25.7667 2.8 23.8C2.8 21.8 2.86667 20.2833 3 19.25C3.16667 18.2167 3.51667 17.25 4.05 16.35C4.61667 15.45 5.46667 14.8167 6.6 14.45C7.76667 14.0833 9.3 13.9 11.2 13.9H11.8ZM19.55 29.75H20.15C21.5833 29.75 22.6833 29.7833 23.45 29.85C24.25 29.8833 25.0167 30.0333 25.75 30.3C26.4833 30.5333 26.9833 30.8167 27.25 31.15C27.55 31.4833 27.8167 32.0667 28.05 32.9C28.3167 33.7 28.4667 34.5667 28.5 35.5C28.5333 36.4333 28.55 37.7667 28.55 39.5C28.55 41.2333 28.5333 42.6167 28.5 43.65C28.4667 44.65 28.3167 45.6167 28.05 46.55C27.8167 47.45 27.55 48.0833 27.25 48.45C26.9833 48.8167 26.4833 49.15 25.75 49.45C25.0167 49.7167 24.25 49.8833 23.45 49.95C22.6833 49.9833 21.5833 50 20.15 50H19.55V29.75ZM3.5 38.85H9.8C10.2667 38.85 10.55 38.9167 10.65 39.05C10.75 39.1833 10.8 39.4667 10.8 39.9V43.8C10.8 44.3333 10.8667 44.7167 11 44.95C11.1667 45.15 11.55 45.25 12.15 45.25H17.55V50H10.2C7.76667 50 5.91667 49.5833 4.65 48.75C3.41667 47.9167 2.8 46.4667 2.8 44.4V39.9C2.8 39.2 3.03333 38.85 3.5 38.85ZM13.8 13.85H20.15C22.5833 13.85 24.4167 14.2667 25.65 15.1C26.9167 15.9333 27.55 17.3833 27.55 19.45V23.95C27.55 24.65 27.3167 25 26.85 25H20.55C20.0833 25 19.8 24.9333 19.7 24.8C19.6 24.6667 19.55 24.3833 19.55 23.95V20.05C19.55 19.5167 19.4667 19.15 19.3 18.95C19.1667 18.7167 18.8 18.6 18.2 18.6H13.8V13.85Z" fill="#695D3C"/>
</g>
<g filter="url(#filter1_i_99_267)">
<path d="M39.15 22.85V52.8C39.15 53.3 39.2667 53.6667 39.5 53.9C39.7667 54.1333 40.3333 54.25 41.2 54.25H44.9V59H38.55C37.2167 59 36.1 58.9 35.2 58.7C34.3333 58.5 33.5667 58.1 32.9 57.5C32.2667 56.8667 31.7667 56.1667 31.4 55.4C31.0667 54.6333 30.8 53.4833 30.6 51.95C30.3 49.65 30.15 46.5667 30.15 42.7C30.15 38.8 30.1667 36.05 30.2 34.45C30.2667 32.85 30.4 31.3 30.6 29.8C30.8 28.2667 31.0667 27.1333 31.4 26.4C31.7667 25.6333 32.2667 24.95 32.9 24.35C33.5667 23.7167 34.3333 23.3167 35.2 23.15C36.1 22.95 37.2167 22.85 38.55 22.85H39.15ZM41.15 39.3H49.95C53.2167 39.3 54.85 40.8 54.85 43.8V54.2C54.85 56.2667 54.6833 57.5833 54.35 58.15C54.05 58.7167 53.15 59 51.65 59H46.9V45.5C46.9 44.9667 46.8167 44.6 46.65 44.4C46.5167 44.1667 46.15 44.05 45.55 44.05H41.15V39.3ZM41.15 22.85H47.5C49.9333 22.85 51.7667 23.2667 53 24.1C54.2667 24.9333 54.9 26.3833 54.9 28.45V32.95C54.9 33.65 54.6667 34 54.2 34H47.9C47.4333 34 47.15 33.9333 47.05 33.8C46.95 33.6667 46.9 33.3833 46.9 32.95V29.05C46.9 28.5167 46.8167 28.15 46.65 27.95C46.5167 27.7167 46.15 27.6 45.55 27.6H41.15V22.85Z" fill="#695D3C"/>
</g>
<defs>
<filter id="filter0_i_99_267" x="2.7998" y="13.8501" width="25.75" height="40.1499" filterUnits="userSpaceOnUse" color-interpolation-filters="sRGB">
<feFlood flood-opacity="0" result="BackgroundImageFix"/>
<feBlend mode="normal" in="SourceGraphic" in2="BackgroundImageFix" result="shape"/>
<feColorMatrix in="SourceAlpha" type="matrix" values="0 0 0 0 0 0 0 0 0 0 0 0 0 0 0 0 0 0 127 0" result="hardAlpha"/>
<feOffset dy="4"/>
<feGaussianBlur stdDeviation="2"/>
<feComposite in2="hardAlpha" operator="arithmetic" k2="-1" k3="1"/>
<feColorMatrix type="matrix" values="0 0 0 0 0 0 0 0 0 0 0 0 0 0 0 0 0 0 0.25 0"/>
<feBlend mode="normal" in2="shape" result="effect1_innerShadow_99_267"/>
</filter>
<filter id="filter1_i_99_267" x="30.1504" y="22.8501" width="24.75" height="40.1499" filterUnits="userSpaceOnUse" color-interpolation-filters="sRGB">
<feFlood flood-opacity="0" result="BackgroundImageFix"/>
<feBlend mode="normal" in="SourceGraphic" in2="BackgroundImageFix" result="shape"/>
<feColorMatrix in="SourceAlpha" type="matrix" values="0 0 0 0 0 0 0 0 0 0 0 0 0 0 0 0 0 0 127 0" result="hardAlpha"/>
<feOffset dy="4"/>
<feGaussianBlur stdDeviation="2"/>
<feComposite in2="hardAlpha" operator="arithmetic" k2="-1" k3="1"/>
<feColorMatrix type="matrix" values="0 0 0 0 0 0 0 0 0 0 0 0 0 0 0 0 0 0 0.25 0"/>
<feBlend mode="normal" in2="shape" result="effect1_innerShadow_99_267"/>
</filter>
</defs>
</svg>
