<svg width="359" height="61" viewBox="0 0 359 61" fill="none" xmlns="http://www.w3.org/2000/svg">
<g filter="url(#filter0_i_127_285)">
<path d="M2.32558 56.3488H4.65116V58.6744H2.32558V56.3488ZM2.32558 54.0233H4.65116V56.3488H2.32558V54.0233ZM4.65116 54.0233H6.97674V56.3488H4.65116V54.0233ZM6.97674 51.6977H9.30233V54.0233H6.97674V51.6977ZM6.97674 49.3721H9.30233V51.6977H6.97674V49.3721ZM9.30233 49.3721H11.6279V51.6977H9.30233V49.3721ZM16.2791 49.3721H18.6047V51.6977H16.2791V49.3721ZM13.9535 47.0465H16.2791V49.3721H13.9535V47.0465ZM13.9535 44.7209H16.2791V47.0465H13.9535V44.7209ZM16.2791 44.7209H18.6047V47.0465H16.2791V44.7209ZM16.2791 47.0465H18.6047V49.3721H16.2791V47.0465ZM20.9302 47.0465H23.2558V49.3721H20.9302V47.0465ZM20.9302 49.3721H23.2558V51.6977H20.9302V49.3721ZM18.6047 49.3721H20.9302V51.6977H18.6047V49.3721ZM18.6047 47.0465H20.9302V49.3721H18.6047V47.0465ZM25.5814 49.3721H27.907V51.6977H25.5814V49.3721ZM20.9302 51.6977H23.2558V54.0233H20.9302V51.6977ZM18.6047 51.6977H20.9302V54.0233H18.6047V51.6977ZM20.9302 54.0233H23.2558V56.3488H20.9302V54.0233ZM23.2558 54.0233H25.5814V56.3488H23.2558V54.0233ZM25.5814 54.0233H27.907V56.3488H25.5814V54.0233ZM25.5814 56.3488H27.907V58.6744H25.5814V56.3488ZM23.2558 56.3488H25.5814V58.6744H23.2558V56.3488ZM23.2558 51.6977H25.5814V54.0233H23.2558V51.6977ZM25.5814 51.6977H27.907V54.0233H25.5814V51.6977ZM44.186 47.0465H46.5116V49.3721H44.186V47.0465ZM44.186 44.7209H46.5116V47.0465H44.186V44.7209ZM46.5116 44.7209H48.8372V47.0465H46.5116V44.7209ZM48.8372 42.3953H51.1628V44.7209H48.8372V42.3953ZM48.8372 40.0698H51.1628V42.3953H48.8372V40.0698ZM39.5349 42.3953H41.8605V44.7209H39.5349V42.3953ZM41.8605 42.3953H44.186V44.7209H41.8605V42.3953ZM46.5116 37.7442H48.8372V40.0698H46.5116V37.7442ZM46.5116 35.4186H48.8372V37.7442H46.5116V35.4186ZM44.186 35.4186H46.5116V37.7442H44.186V35.4186ZM41.8605 33.093H44.186V35.4186H41.8605V33.093ZM41.8605 30.7674H44.186V33.093H41.8605V30.7674ZM39.5349 30.7674H41.8605V33.093H39.5349V30.7674ZM48.8372 37.7442H51.1628V40.0698H48.8372V37.7442ZM48.8372 35.4186H51.1628V37.7442H48.8372V35.4186ZM44.186 33.093H46.5116V35.4186H44.186V33.093ZM44.186 30.7674H46.5116V33.093H44.186V30.7674ZM46.5116 33.093H48.8372V35.4186H46.5116V33.093ZM39.5349 28.4419H41.8605V30.7674H39.5349V28.4419ZM27.907 23.7907H30.2326V26.1163H27.907V23.7907ZM30.2326 23.7907H32.5581V26.1163H30.2326V23.7907ZM37.2093 28.4419H39.5349V30.7674H37.2093V28.4419ZM34.8837 26.1163H37.2093V28.4419H34.8837V26.1163ZM34.8837 28.4419H37.2093V30.7674H34.8837V28.4419ZM32.5581 26.1163H34.8837V28.4419H32.5581V26.1163ZM30.2326 26.1163H32.5581V28.4419H30.2326V26.1163ZM32.5581 28.4419H34.8837V30.7674H32.5581V28.4419ZM37.2093 40.0698H39.5349V42.3953H37.2093V40.0698ZM34.8837 40.0698H37.2093V42.3953H34.8837V40.0698ZM32.5581 40.0698H34.8837V42.3953H32.5581V40.0698ZM30.2326 37.7442H32.5581V40.0698H30.2326V37.7442ZM32.5581 37.7442H34.8837V40.0698H32.5581V37.7442ZM27.907 35.4186H30.2326V37.7442H27.907V35.4186ZM25.5814 35.4186H27.907V37.7442H25.5814V35.4186ZM27.907 37.7442H30.2326V40.0698H27.907V37.7442ZM23.2558 35.4186H25.5814V37.7442H23.2558V35.4186ZM23.2558 33.093H25.5814V35.4186H23.2558V33.093ZM11.6279 16.814H13.9535V19.1395H11.6279V16.814ZM13.9535 12.1628H16.2791V14.4884H13.9535V12.1628ZM18.6047 5.18604H20.9302V7.51163H18.6047V5.18604ZM20.9302 5.18604H23.2558V7.51163H20.9302V5.18604ZM25.5814 21.4651H27.907V23.7907H25.5814V21.4651ZM37.2093 12.1628H39.5349V14.4884H37.2093V12.1628ZM37.2093 9.83721H39.5349V12.1628H37.2093V9.83721ZM39.5349 12.1628H41.8605V14.4884H39.5349V12.1628ZM37.2093 14.4884H39.5349V16.814H37.2093V14.4884ZM39.5349 14.4884H41.8605V16.814H39.5349V14.4884ZM44.186 9.83721H46.5116V12.1628H44.186V9.83721ZM41.8605 12.1628H44.186V14.4884H41.8605V12.1628ZM34.8837 9.83721H37.2093V12.1628H34.8837V9.83721ZM32.5581 9.83721H34.8837V12.1628H32.5581V9.83721ZM32.5581 12.1628H34.8837V14.4884H32.5581V12.1628ZM34.8837 12.1628H37.2093V14.4884H34.8837V12.1628ZM30.2326 9.83721H32.5581V12.1628H30.2326V9.83721ZM34.8837 7.51163H37.2093V9.83721H34.8837V7.51163ZM32.5581 5.18604H34.8837V7.51163H32.5581V5.18604ZM30.2326 5.18604H32.5581V7.51163H30.2326V5.18604ZM27.907 5.18604H30.2326V7.51163H27.907V5.18604ZM23.2558 7.51163H25.5814V9.83721H23.2558V7.51163ZM25.5814 5.18604H27.907V7.51163H25.5814V5.18604ZM23.2558 5.18604H25.5814V7.51163H23.2558V5.18604ZM30.2326 7.51163H32.5581V9.83721H30.2326V7.51163ZM32.5581 7.51163H34.8837V9.83721H32.5581V7.51163ZM27.907 7.51163H30.2326V9.83721H27.907V7.51163ZM25.5814 7.51163H27.907V9.83721H25.5814V7.51163ZM46.5116 7.51163H48.8372V9.83721H46.5116V7.51163ZM48.8372 5.18604H51.1628V7.51163H48.8372V5.18604ZM4.65116 51.6977H6.97674V54.0233H4.65116V51.6977ZM27.907 2.86047H30.2326V5.18604H27.907V2.86047ZM25.5814 2.86047H27.907V5.18604H25.5814V2.86047ZM23.2558 2.86047H25.5814V5.18604H23.2558V2.86047ZM34.8837 14.4884H37.2093V16.814H34.8837V14.4884ZM30.2326 54.0233H32.5581V56.3488H30.2326V54.0233ZM41.8605 44.7209H44.186V47.0465H41.8605V44.7209ZM30.2326 56.3488H32.5581V58.6744H30.2326V56.3488ZM32.5581 56.3488H34.8837V58.6744H32.5581V56.3488ZM34.8837 54.0233H37.2093V56.3488H34.8837V54.0233ZM32.5581 54.0233H34.8837V56.3488H32.5581V54.0233ZM41.8605 49.3721H44.186V51.6977H41.8605V49.3721ZM9.30233 47.0465H11.6279V49.3721H9.30233V47.0465ZM41.8605 47.0465H44.186V49.3721H41.8605V47.0465ZM6.97674 21.4651H9.30233V23.7907H6.97674V21.4651ZM6.97674 19.1395H9.30233V21.4651H6.97674V19.1395ZM11.6279 12.1628H13.9535V14.4884H11.6279V12.1628ZM13.9535 9.83721H16.2791V12.1628H13.9535V9.83721ZM13.9535 7.51163H16.2791V9.83721H13.9535V7.51163ZM6.97674 16.814H9.30233V19.1395H6.97674V16.814ZM6.97674 14.4884H9.30233V16.814H6.97674V14.4884ZM9.30233 12.1628H11.6279V14.4884H9.30233V12.1628ZM9.30233 9.83721H11.6279V12.1628H9.30233V9.83721ZM11.6279 9.83721H13.9535V12.1628H11.6279V9.83721ZM11.6279 7.51163H13.9535V9.83721H11.6279V7.51163ZM13.9535 5.18604H16.2791V7.51163H13.9535V5.18604ZM16.2791 5.18604H18.6047V7.51163H16.2791V5.18604ZM16.2791 2.86047H18.6047V5.18604H16.2791V2.86047ZM20.9302 2.86047H23.2558V5.18604H20.9302V2.86047ZM18.6047 2.86047H20.9302V5.18604H18.6047V2.86047ZM9.30233 7.51163H11.6279V9.83721H9.30233V7.51163ZM11.6279 5.18604H13.9535V7.51163H11.6279V5.18604ZM37.2093 7.51163H39.5349V9.83721H37.2093V7.51163ZM13.9535 49.3721H16.2791V51.6977H13.9535V49.3721ZM13.9535 14.4884H16.2791V16.814H13.9535V14.4884ZM18.6047 19.1395H20.9302V21.4651H18.6047V19.1395ZM20.9302 19.1395H23.2558V21.4651H20.9302V19.1395ZM25.5814 23.7907H27.907V26.1163H25.5814V23.7907ZM30.2326 28.4419H32.5581V30.7674H30.2326V28.4419ZM39.5349 33.093H41.8605V35.4186H39.5349V33.093ZM37.2093 42.3953H39.5349V44.7209H37.2093V42.3953ZM34.8837 56.3488H37.2093V58.6744H34.8837V56.3488ZM37.2093 54.0233H39.5349V56.3488H37.2093V54.0233ZM11.6279 44.7209H13.9535V47.0465H11.6279V44.7209ZM11.6279 49.3721H13.9535V51.6977H11.6279V49.3721ZM11.6279 47.0465H13.9535V49.3721H11.6279V47.0465ZM27.907 28.4419H30.2326V30.7674H27.907V28.4419ZM27.907 26.1163H30.2326V28.4419H27.907V26.1163ZM16.2791 51.6977H18.6047V54.0233H16.2791V51.6977ZM13.9535 51.6977H16.2791V54.0233H13.9535V51.6977ZM18.6047 54.0233H20.9302V56.3488H18.6047V54.0233ZM41.8605 9.83721H44.186V12.1628H41.8605V9.83721ZM48.8372 2.86047H51.1628V5.18604H48.8372V2.86047ZM46.5116 5.18604H48.8372V7.51163H46.5116V5.18604ZM44.186 7.51163H46.5116V9.83721H44.186V7.51163ZM27.907 9.83721H30.2326V12.1628H27.907V9.83721ZM11.6279 14.4884H13.9535V16.814H11.6279V14.4884ZM9.30233 14.4884H11.6279V16.814H9.30233V14.4884ZM13.9535 16.814H16.2791V19.1395H13.9535V16.814ZM13.9535 19.1395H16.2791V21.4651H13.9535V19.1395ZM16.2791 19.1395H18.6047V21.4651H16.2791V19.1395ZM16.2791 16.814H18.6047V19.1395H16.2791V16.814ZM18.6047 21.4651H20.9302V23.7907H18.6047V21.4651ZM23.2558 23.7907H25.5814V26.1163H23.2558V23.7907ZM20.9302 21.4651H23.2558V23.7907H20.9302V21.4651ZM23.2558 21.4651H25.5814V23.7907H23.2558V21.4651ZM32.5581 30.7674H34.8837V33.093H32.5581V30.7674ZM34.8837 30.7674H37.2093V33.093H34.8837V30.7674ZM37.2093 33.093H39.5349V35.4186H37.2093V33.093ZM37.2093 30.7674H39.5349V33.093H37.2093V30.7674ZM41.8605 35.4186H44.186V37.7442H41.8605V35.4186ZM27.907 54.0233H30.2326V56.3488H27.907V54.0233ZM27.907 56.3488H30.2326V58.6744H27.907V56.3488ZM39.5349 54.0233H41.8605V56.3488H39.5349V54.0233ZM41.8605 51.6977H44.186V54.0233H41.8605V51.6977ZM44.186 49.3721H46.5116V51.6977H44.186V49.3721ZM46.5116 47.0465H48.8372V49.3721H46.5116V47.0465ZM48.8372 44.7209H51.1628V47.0465H48.8372V44.7209ZM46.5116 49.3721H48.8372V51.6977H46.5116V49.3721ZM44.186 51.6977H46.5116V54.0233H44.186V51.6977ZM41.8605 54.0233H44.186V56.3488H41.8605V54.0233ZM6.97674 12.1628H9.30233V14.4884H6.97674V12.1628ZM37.2093 56.3488H39.5349V58.6744H37.2093V56.3488ZM18.6047 30.7674H20.9302V33.093H18.6047V30.7674ZM13.9535 28.4419H16.2791V30.7674H13.9535V28.4419ZM6.97674 23.7907H9.30233V26.1163H6.97674V23.7907ZM9.30233 16.814H11.6279V19.1395H9.30233V16.814ZM9.30233 19.1395H11.6279V21.4651H9.30233V19.1395ZM11.6279 19.1395H13.9535V21.4651H11.6279V19.1395ZM13.9535 21.4651H16.2791V23.7907H13.9535V21.4651ZM16.2791 21.4651H18.6047V23.7907H16.2791V21.4651ZM25.5814 26.1163H27.907V28.4419H25.5814V26.1163ZM23.2558 26.1163H25.5814V28.4419H23.2558V26.1163ZM20.9302 23.7907H23.2558V26.1163H20.9302V23.7907ZM18.6047 23.7907H20.9302V26.1163H18.6047V23.7907ZM9.30233 26.1163H11.6279V28.4419H9.30233V26.1163ZM11.6279 51.6977H13.9535V54.0233H11.6279V51.6977ZM16.2791 54.0233H18.6047V56.3488H16.2791V54.0233ZM20.9302 56.3488H23.2558V58.6744H20.9302V56.3488ZM9.30233 51.6977H11.6279V54.0233H9.30233V51.6977ZM13.9535 54.0233H16.2791V56.3488H13.9535V54.0233ZM18.6047 56.3488H20.9302V58.6744H18.6047V56.3488ZM18.6047 44.7209H20.9302V47.0465H18.6047V44.7209ZM23.2558 47.0465H25.5814V49.3721H23.2558V47.0465ZM23.2558 49.3721H25.5814V51.6977H23.2558V49.3721ZM27.907 51.6977H30.2326V54.0233H27.907V51.6977ZM27.907 49.3721H30.2326V51.6977H27.907V49.3721ZM30.2326 51.6977H32.5581V54.0233H30.2326V51.6977ZM32.5581 51.6977H34.8837V54.0233H32.5581V51.6977ZM20.9302 33.093H23.2558V35.4186H20.9302V33.093ZM18.6047 33.093H20.9302V35.4186H18.6047V33.093ZM13.9535 30.7674H16.2791V33.093H13.9535V30.7674ZM16.2791 30.7674H18.6047V33.093H16.2791V30.7674ZM11.6279 28.4419H13.9535V30.7674H11.6279V28.4419ZM9.30233 28.4419H11.6279V30.7674H9.30233V28.4419ZM6.97674 26.1163H9.30233V28.4419H6.97674V26.1163ZM30.2326 12.1628H32.5581V14.4884H30.2326V12.1628ZM25.5814 9.83721H27.907V12.1628H25.5814V9.83721ZM20.9302 7.51163H23.2558V9.83721H20.9302V7.51163ZM16.2791 14.4884H18.6047V16.814H16.2791V14.4884ZM18.6047 16.814H20.9302V19.1395H18.6047V16.814ZM23.2558 58.6744H25.5814V61H23.2558V58.6744ZM25.5814 58.6744H27.907V61H25.5814V58.6744ZM27.907 58.6744H30.2326V61H27.907V58.6744ZM30.2326 58.6744H32.5581V61H30.2326V58.6744ZM32.5581 58.6744H34.8837V61H32.5581V58.6744ZM0 56.3488H2.32558V58.6744H0V56.3488ZM0 58.6744H2.32558V61H0V58.6744ZM30.2326 2.86047H32.5581V5.18604H30.2326V2.86047ZM34.8837 5.18604H37.2093V7.51163H34.8837V5.18604ZM39.5349 9.83721H41.8605V12.1628H39.5349V9.83721ZM39.5349 7.51163H41.8605V9.83721H39.5349V7.51163ZM23.2558 19.1395H25.5814V21.4651H23.2558V19.1395ZM27.907 21.4651H30.2326V23.7907H27.907V21.4651ZM32.5581 23.7907H34.8837V26.1163H32.5581V23.7907ZM37.2093 26.1163H39.5349V28.4419H37.2093V26.1163ZM41.8605 28.4419H44.186V30.7674H41.8605V28.4419ZM46.5116 30.7674H48.8372V33.093H46.5116V30.7674ZM48.8372 33.093H51.1628V35.4186H48.8372V33.093ZM46.5116 40.0698H48.8372V42.3953H46.5116V40.0698ZM46.5116 42.3953H48.8372V44.7209H46.5116V42.3953ZM44.186 42.3953H46.5116V44.7209H44.186V42.3953ZM11.6279 21.4651H13.9535V23.7907H11.6279V21.4651ZM9.30233 21.4651H11.6279V23.7907H9.30233V21.4651ZM9.30233 23.7907H11.6279V26.1163H9.30233V23.7907ZM39.5349 56.3488H41.8605V58.6744H39.5349V56.3488ZM34.8837 58.6744H37.2093V61H34.8837V58.6744ZM39.5349 51.6977H41.8605V54.0233H39.5349V51.6977ZM41.8605 7.51163H44.186V9.83721H41.8605V7.51163ZM32.5581 14.4884H34.8837V16.814H32.5581V14.4884ZM27.907 12.1628H30.2326V14.4884H27.907V12.1628ZM23.2558 9.83721H25.5814V12.1628H23.2558V9.83721ZM18.6047 7.51163H20.9302V9.83721H18.6047V7.51163ZM16.2791 7.51163H18.6047V9.83721H16.2791V7.51163ZM62.818 58.6744H65.1435V61H62.818V58.6744ZM65.1435 58.6744H67.4691V61H65.1435V58.6744ZM60.4924 56.3488H62.818V58.6744H60.4924V56.3488ZM62.818 56.3488H65.1435V58.6744H62.818V56.3488ZM65.1435 56.3488H67.4691V58.6744H65.1435V56.3488ZM67.4691 56.3488H69.7947V58.6744H67.4691V56.3488ZM58.1668 54.0233H60.4924V56.3488H58.1668V54.0233ZM60.4924 54.0233H62.818V56.3488H60.4924V54.0233ZM60.4924 51.6977H62.818V54.0233H60.4924V51.6977ZM62.818 51.6977H65.1435V54.0233H62.818V51.6977ZM62.818 54.0233H65.1435V56.3488H62.818V54.0233ZM65.1435 54.0233H67.4691V56.3488H65.1435V54.0233ZM67.4691 54.0233H69.7947V56.3488H67.4691V54.0233ZM67.4691 51.6977H69.7947V54.0233H67.4691V51.6977ZM69.7947 54.0233H72.1203V56.3488H69.7947V54.0233ZM65.1435 51.6977H67.4691V54.0233H65.1435V51.6977ZM62.818 49.3721H65.1435V51.6977H62.818V49.3721ZM65.1435 49.3721H67.4691V51.6977H65.1435V49.3721ZM67.4691 49.3721H69.7947V51.6977H67.4691V49.3721ZM67.4691 47.0465H69.7947V49.3721H67.4691V47.0465ZM65.1435 47.0465H67.4691V49.3721H65.1435V47.0465ZM62.818 47.0465H65.1435V49.3721H62.818V47.0465ZM62.818 44.7209H65.1435V47.0465H62.818V44.7209ZM62.818 42.3953H65.1435V44.7209H62.818V42.3953ZM62.818 40.0698H65.1435V42.3953H62.818V40.0698ZM62.818 37.7442H65.1435V40.0698H62.818V37.7442ZM62.818 35.4186H65.1435V37.7442H62.818V35.4186ZM65.1435 35.4186H67.4691V37.7442H65.1435V35.4186ZM67.4691 35.4186H69.7947V37.7442H67.4691V35.4186ZM67.4691 37.7442H69.7947V40.0698H67.4691V37.7442ZM67.4691 40.0698H69.7947V42.3953H67.4691V40.0698ZM67.4691 42.3953H69.7947V44.7209H67.4691V42.3953ZM65.1435 42.3953H67.4691V44.7209H65.1435V42.3953ZM65.1435 44.7209H67.4691V47.0465H65.1435V44.7209ZM65.1435 40.0698H67.4691V42.3953H65.1435V40.0698ZM65.1435 37.7442H67.4691V40.0698H65.1435V37.7442ZM67.4691 44.7209H69.7947V47.0465H67.4691V44.7209ZM67.4691 33.093H69.7947V35.4186H67.4691V33.093ZM67.4691 30.7674H69.7947V33.093H67.4691V30.7674ZM67.4691 28.4419H69.7947V30.7674H67.4691V28.4419ZM67.4691 26.1163H69.7947V28.4419H67.4691V26.1163ZM67.4691 23.7907H69.7947V26.1163H67.4691V23.7907ZM62.818 23.7907H65.1435V26.1163H62.818V23.7907ZM65.1435 26.1163H67.4691V28.4419H65.1435V26.1163ZM65.1435 28.4419H67.4691V30.7674H65.1435V28.4419ZM65.1435 30.7674H67.4691V33.093H65.1435V30.7674ZM65.1435 33.093H67.4691V35.4186H65.1435V33.093ZM62.818 33.093H65.1435V35.4186H62.818V33.093ZM62.818 30.7674H65.1435V33.093H62.818V30.7674ZM62.818 28.4419H65.1435V30.7674H62.818V28.4419ZM62.818 26.1163H65.1435V28.4419H62.818V26.1163ZM65.1435 23.7907H67.4691V26.1163H65.1435V23.7907ZM60.4924 49.3721H62.818V51.6977H60.4924V49.3721ZM60.4924 47.0465H62.818V49.3721H60.4924V47.0465ZM60.4924 44.7209H62.818V47.0465H60.4924V44.7209ZM60.4924 42.3953H62.818V44.7209H60.4924V42.3953ZM60.4924 40.0698H62.818V42.3953H60.4924V40.0698ZM60.4924 37.7442H62.818V40.0698H60.4924V37.7442ZM60.4924 35.4186H62.818V37.7442H60.4924V35.4186ZM60.4924 33.093H62.818V35.4186H60.4924V33.093ZM60.4924 30.7674H62.818V33.093H60.4924V30.7674ZM60.4924 28.4419H62.818V30.7674H60.4924V28.4419ZM60.4924 23.7907H62.818V26.1163H60.4924V23.7907ZM60.4924 26.1163H62.818V28.4419H60.4924V26.1163ZM65.1435 21.4651H67.4691V23.7907H65.1435V21.4651ZM58.1668 26.1163H60.4924V28.4419H58.1668V26.1163ZM81.4226 58.6744H83.7482V61H81.4226V58.6744ZM83.7482 58.6744H86.0738V61H83.7482V58.6744ZM79.097 56.3488H81.4226V58.6744H79.097V56.3488ZM81.4226 56.3488H83.7482V58.6744H81.4226V56.3488ZM83.7482 56.3488H86.0738V58.6744H83.7482V56.3488ZM86.0738 56.3488H88.3993V58.6744H86.0738V56.3488ZM76.7714 54.0233H79.097V56.3488H76.7714V54.0233ZM79.097 54.0233H81.4226V56.3488H79.097V54.0233ZM79.097 51.6977H81.4226V54.0233H79.097V51.6977ZM81.4226 51.6977H83.7482V54.0233H81.4226V51.6977ZM81.4226 54.0233H83.7482V56.3488H81.4226V54.0233ZM83.7482 54.0233H86.0738V56.3488H83.7482V54.0233ZM86.0738 54.0233H88.3993V56.3488H86.0738V54.0233ZM86.0738 51.6977H88.3993V54.0233H86.0738V51.6977ZM88.3993 54.0233H90.7249V56.3488H88.3993V54.0233ZM83.7482 51.6977H86.0738V54.0233H83.7482V51.6977ZM81.4226 49.3721H83.7482V51.6977H81.4226V49.3721ZM83.7482 49.3721H86.0738V51.6977H83.7482V49.3721ZM86.0738 49.3721H88.3993V51.6977H86.0738V49.3721ZM86.0738 47.0465H88.3993V49.3721H86.0738V47.0465ZM83.7482 47.0465H86.0738V49.3721H83.7482V47.0465ZM81.4226 47.0465H83.7482V49.3721H81.4226V47.0465ZM81.4226 44.7209H83.7482V47.0465H81.4226V44.7209ZM81.4226 42.3953H83.7482V44.7209H81.4226V42.3953ZM81.4226 40.0698H83.7482V42.3953H81.4226V40.0698ZM81.4226 37.7442H83.7482V40.0698H81.4226V37.7442ZM81.4226 35.4186H83.7482V37.7442H81.4226V35.4186ZM83.7482 35.4186H86.0738V37.7442H83.7482V35.4186ZM86.0738 35.4186H88.3993V37.7442H86.0738V35.4186ZM86.0738 37.7442H88.3993V40.0698H86.0738V37.7442ZM86.0738 40.0698H88.3993V42.3953H86.0738V40.0698ZM86.0738 42.3953H88.3993V44.7209H86.0738V42.3953ZM83.7482 42.3953H86.0738V44.7209H83.7482V42.3953ZM83.7482 44.7209H86.0738V47.0465H83.7482V44.7209ZM83.7482 40.0698H86.0738V42.3953H83.7482V40.0698ZM83.7482 37.7442H86.0738V40.0698H83.7482V37.7442ZM86.0738 44.7209H88.3993V47.0465H86.0738V44.7209ZM86.0738 33.093H88.3993V35.4186H86.0738V33.093ZM86.0738 30.7674H88.3993V33.093H86.0738V30.7674ZM86.0738 28.4419H88.3993V30.7674H86.0738V28.4419ZM86.0738 26.1163H88.3993V28.4419H86.0738V26.1163ZM86.0738 23.7907H88.3993V26.1163H86.0738V23.7907ZM81.4226 23.7907H83.7482V26.1163H81.4226V23.7907ZM83.7482 26.1163H86.0738V28.4419H83.7482V26.1163ZM83.7482 28.4419H86.0738V30.7674H83.7482V28.4419ZM83.7482 30.7674H86.0738V33.093H83.7482V30.7674ZM83.7482 33.093H86.0738V35.4186H83.7482V33.093ZM81.4226 33.093H83.7482V35.4186H81.4226V33.093ZM81.4226 30.7674H83.7482V33.093H81.4226V30.7674ZM81.4226 28.4419H83.7482V30.7674H81.4226V28.4419ZM81.4226 26.1163H83.7482V28.4419H81.4226V26.1163ZM83.7482 23.7907H86.0738V26.1163H83.7482V23.7907ZM79.097 49.3721H81.4226V51.6977H79.097V49.3721ZM79.097 47.0465H81.4226V49.3721H79.097V47.0465ZM79.097 44.7209H81.4226V47.0465H79.097V44.7209ZM79.097 42.3953H81.4226V44.7209H79.097V42.3953ZM79.097 40.0698H81.4226V42.3953H79.097V40.0698ZM79.097 37.7442H81.4226V40.0698H79.097V37.7442ZM79.097 35.4186H81.4226V37.7442H79.097V35.4186ZM79.097 33.093H81.4226V35.4186H79.097V33.093ZM79.097 30.7674H81.4226V33.093H79.097V30.7674ZM79.097 28.4419H81.4226V30.7674H79.097V28.4419ZM79.097 23.7907H81.4226V26.1163H79.097V23.7907ZM79.097 26.1163H81.4226V28.4419H79.097V26.1163ZM81.4226 21.4651H83.7482V23.7907H81.4226V21.4651ZM83.7482 21.4651H86.0738V23.7907H83.7482V21.4651ZM76.7714 26.1163H79.097V28.4419H76.7714V26.1163ZM55.8412 28.4419H58.1668V30.7674H55.8412V28.4419ZM58.1668 28.4419H60.4924V30.7674H58.1668V28.4419ZM72.1203 26.1163H74.4459V28.4419H72.1203V26.1163ZM74.4459 26.1163H76.7714V28.4419H74.4459V26.1163ZM74.4459 23.7907H76.7714V26.1163H74.4459V23.7907ZM76.7714 23.7907H79.097V26.1163H76.7714V23.7907ZM76.7714 21.4651H79.097V23.7907H76.7714V21.4651ZM79.097 21.4651H81.4226V23.7907H79.097V21.4651ZM69.7947 26.1163H72.1203V28.4419H69.7947V26.1163ZM76.7714 28.4419H79.097V30.7674H76.7714V28.4419ZM55.8412 51.6977H58.1668V54.0233H55.8412V51.6977ZM58.1668 51.6977H60.4924V54.0233H58.1668V51.6977ZM74.4459 51.6977H76.7714V54.0233H74.4459V51.6977ZM76.7714 51.6977H79.097V54.0233H76.7714V51.6977ZM88.3993 51.6977H90.7249V54.0233H88.3993V51.6977ZM55.8412 26.1163H58.1668V28.4419H55.8412V26.1163ZM69.7947 51.6977H72.1203V54.0233H69.7947V51.6977ZM74.4459 28.4419H76.7714V30.7674H74.4459V28.4419ZM72.1203 28.4419H74.4459V30.7674H72.1203V28.4419ZM69.7947 28.4419H72.1203V30.7674H69.7947V28.4419ZM100.027 58.6744H102.353V61H100.027V58.6744ZM102.353 58.6744H104.678V61H102.353V58.6744ZM97.7017 56.3488H100.027V58.6744H97.7017V56.3488ZM100.027 56.3488H102.353V58.6744H100.027V56.3488ZM102.353 56.3488H104.678V58.6744H102.353V56.3488ZM104.678 56.3488H107.004V58.6744H104.678V56.3488ZM95.3761 54.0233H97.7017V56.3488H95.3761V54.0233ZM97.7017 54.0233H100.027V56.3488H97.7017V54.0233ZM97.7017 51.6977H100.027V54.0233H97.7017V51.6977ZM100.027 51.6977H102.353V54.0233H100.027V51.6977ZM100.027 54.0233H102.353V56.3488H100.027V54.0233ZM102.353 54.0233H104.678V56.3488H102.353V54.0233ZM104.678 54.0233H107.004V56.3488H104.678V54.0233ZM104.678 51.6977H107.004V54.0233H104.678V51.6977ZM107.004 54.0233H109.33V56.3488H107.004V54.0233ZM102.353 51.6977H104.678V54.0233H102.353V51.6977ZM100.027 49.3721H102.353V51.6977H100.027V49.3721ZM102.353 49.3721H104.678V51.6977H102.353V49.3721ZM104.678 49.3721H107.004V51.6977H104.678V49.3721ZM104.678 47.0465H107.004V49.3721H104.678V47.0465ZM102.353 47.0465H104.678V49.3721H102.353V47.0465ZM100.027 47.0465H102.353V49.3721H100.027V47.0465ZM100.027 44.7209H102.353V47.0465H100.027V44.7209ZM100.027 42.3953H102.353V44.7209H100.027V42.3953ZM100.027 40.0698H102.353V42.3953H100.027V40.0698ZM100.027 37.7442H102.353V40.0698H100.027V37.7442ZM100.027 35.4186H102.353V37.7442H100.027V35.4186ZM102.353 35.4186H104.678V37.7442H102.353V35.4186ZM104.678 35.4186H107.004V37.7442H104.678V35.4186ZM104.678 37.7442H107.004V40.0698H104.678V37.7442ZM104.678 40.0698H107.004V42.3953H104.678V40.0698ZM104.678 42.3953H107.004V44.7209H104.678V42.3953ZM102.353 42.3953H104.678V44.7209H102.353V42.3953ZM102.353 44.7209H104.678V47.0465H102.353V44.7209ZM102.353 40.0698H104.678V42.3953H102.353V40.0698ZM102.353 37.7442H104.678V40.0698H102.353V37.7442ZM104.678 44.7209H107.004V47.0465H104.678V44.7209ZM104.678 33.093H107.004V35.4186H104.678V33.093ZM104.678 30.7674H107.004V33.093H104.678V30.7674ZM104.678 28.4419H107.004V30.7674H104.678V28.4419ZM104.678 26.1163H107.004V28.4419H104.678V26.1163ZM104.678 23.7907H107.004V26.1163H104.678V23.7907ZM100.027 23.7907H102.353V26.1163H100.027V23.7907ZM102.353 26.1163H104.678V28.4419H102.353V26.1163ZM102.353 28.4419H104.678V30.7674H102.353V28.4419ZM102.353 30.7674H104.678V33.093H102.353V30.7674ZM102.353 33.093H104.678V35.4186H102.353V33.093ZM100.027 33.093H102.353V35.4186H100.027V33.093ZM100.027 30.7674H102.353V33.093H100.027V30.7674ZM100.027 28.4419H102.353V30.7674H100.027V28.4419ZM100.027 26.1163H102.353V28.4419H100.027V26.1163ZM102.353 23.7907H104.678V26.1163H102.353V23.7907ZM97.7017 49.3721H100.027V51.6977H97.7017V49.3721ZM97.7017 47.0465H100.027V49.3721H97.7017V47.0465ZM97.7017 44.7209H100.027V47.0465H97.7017V44.7209ZM97.7017 42.3953H100.027V44.7209H97.7017V42.3953ZM97.7017 40.0698H100.027V42.3953H97.7017V40.0698ZM97.7017 37.7442H100.027V40.0698H97.7017V37.7442ZM97.7017 35.4186H100.027V37.7442H97.7017V35.4186ZM97.7017 33.093H100.027V35.4186H97.7017V33.093ZM97.7017 30.7674H100.027V33.093H97.7017V30.7674ZM97.7017 28.4419H100.027V30.7674H97.7017V28.4419ZM97.7017 23.7907H100.027V26.1163H97.7017V23.7907ZM97.7017 26.1163H100.027V28.4419H97.7017V26.1163ZM109.33 51.6977H111.655V54.0233H109.33V51.6977ZM100.027 21.4651H102.353V23.7907H100.027V21.4651ZM102.353 21.4651H104.678V23.7907H102.353V21.4651ZM95.3761 26.1163H97.7017V28.4419H95.3761V26.1163ZM107.004 26.1163H109.33V28.4419H107.004V26.1163ZM90.7249 26.1163H93.0505V28.4419H90.7249V26.1163ZM93.0505 26.1163H95.3761V28.4419H93.0505V26.1163ZM93.0505 23.7907H95.3761V26.1163H93.0505V23.7907ZM95.3761 23.7907H97.7017V26.1163H95.3761V23.7907ZM95.3761 21.4651H97.7017V23.7907H95.3761V21.4651ZM97.7017 21.4651H100.027V23.7907H97.7017V21.4651ZM88.3993 26.1163H90.7249V28.4419H88.3993V26.1163ZM95.3761 28.4419H97.7017V30.7674H95.3761V28.4419ZM93.0505 51.6977H95.3761V54.0233H93.0505V51.6977ZM95.3761 51.6977H97.7017V54.0233H95.3761V51.6977ZM107.004 51.6977H109.33V54.0233H107.004V51.6977ZM109.33 28.4419H111.655V30.7674H109.33V28.4419ZM107.004 28.4419H109.33V30.7674H107.004V28.4419ZM109.33 26.1163H111.655V28.4419H109.33V26.1163ZM93.0505 28.4419H95.3761V30.7674H93.0505V28.4419ZM90.7249 28.4419H93.0505V30.7674H90.7249V28.4419ZM88.3993 28.4419H90.7249V30.7674H88.3993V28.4419ZM55.8412 54.0233H58.1668V56.3488H55.8412V54.0233ZM60.4924 58.6744H62.818V61H60.4924V58.6744ZM74.4459 54.0233H76.7714V56.3488H74.4459V54.0233ZM79.097 58.6744H81.4226V61H79.097V58.6744ZM93.0505 54.0233H95.3761V56.3488H93.0505V54.0233ZM97.7017 58.6744H100.027V61H97.7017V58.6744ZM58.1668 23.7907H60.4924V26.1163H58.1668V23.7907ZM60.4924 21.4651H62.818V23.7907H60.4924V21.4651ZM62.818 21.4651H65.1435V23.7907H62.818V21.4651ZM123.267 30.7674H125.593V33.093H123.267V30.7674ZM125.593 30.7674H127.918V33.093H125.593V30.7674ZM125.593 33.093H127.918V35.4186H125.593V33.093ZM127.918 30.7674H130.244V33.093H127.918V30.7674ZM120.942 30.7674H123.267V33.093H120.942V30.7674ZM120.942 33.093H123.267V35.4186H120.942V33.093ZM120.942 37.7442H123.267V40.0698H120.942V37.7442ZM120.942 40.0698H123.267V42.3953H120.942V40.0698ZM120.942 42.3953H123.267V44.7209H120.942V42.3953ZM120.942 44.7209H123.267V47.0465H120.942V44.7209ZM120.942 47.0465H123.267V49.3721H120.942V47.0465ZM120.942 49.3721H123.267V51.6977H120.942V49.3721ZM123.267 49.3721H125.593V51.6977H123.267V49.3721ZM125.593 49.3721H127.918V51.6977H125.593V49.3721ZM125.593 47.0465H127.918V49.3721H125.593V47.0465ZM127.918 47.0465H130.244V49.3721H127.918V47.0465ZM127.918 44.7209H130.244V47.0465H127.918V44.7209ZM127.918 40.0698H130.244V42.3953H127.918V40.0698ZM127.918 37.7442H130.244V40.0698H127.918V37.7442ZM127.918 35.4186H130.244V37.7442H127.918V35.4186ZM127.918 33.093H130.244V35.4186H127.918V33.093ZM125.593 35.4186H127.918V37.7442H125.593V35.4186ZM125.593 37.7442H127.918V40.0698H125.593V37.7442ZM125.593 40.0698H127.918V42.3953H125.593V40.0698ZM125.593 42.3953H127.918V44.7209H125.593V42.3953ZM125.593 44.7209H127.918V47.0465H125.593V44.7209ZM127.918 42.3953H130.244V44.7209H127.918V42.3953ZM123.267 42.3953H125.593V44.7209H123.267V42.3953ZM123.267 40.0698H125.593V42.3953H123.267V40.0698ZM123.267 37.7442H125.593V40.0698H123.267V37.7442ZM123.267 35.4186H125.593V37.7442H123.267V35.4186ZM123.267 33.093H125.593V35.4186H123.267V33.093ZM120.942 35.4186H123.267V37.7442H120.942V35.4186ZM123.267 44.7209H125.593V47.0465H123.267V44.7209ZM123.267 47.0465H125.593V49.3721H123.267V47.0465ZM118.616 54.0233H120.942V56.3488H118.616V54.0233ZM116.29 54.0233H118.616V56.3488H116.29V54.0233ZM116.29 51.6977H118.616V54.0233H116.29V51.6977ZM118.616 51.6977H120.942V54.0233H118.616V51.6977ZM120.942 51.6977H123.267V54.0233H120.942V51.6977ZM120.942 54.0233H123.267V56.3488H120.942V54.0233ZM123.267 54.0233H125.593V56.3488H123.267V54.0233ZM125.593 54.0233H127.918V56.3488H125.593V54.0233ZM127.918 54.0233H130.244V56.3488H127.918V54.0233ZM127.918 51.6977H130.244V54.0233H127.918V51.6977ZM127.918 49.3721H130.244V51.6977H127.918V49.3721ZM125.593 51.6977H127.918V54.0233H125.593V51.6977ZM123.267 51.6977H125.593V54.0233H123.267V51.6977ZM125.593 56.3488H127.918V58.6744H125.593V56.3488ZM125.593 58.6744H127.918V61H125.593V58.6744ZM127.918 58.6744H130.244V61H127.918V58.6744ZM127.918 56.3488H130.244V58.6744H127.918V56.3488ZM130.244 54.0233H132.569V56.3488H130.244V54.0233ZM130.244 51.6977H132.569V54.0233H130.244V51.6977ZM132.569 51.6977H134.895V54.0233H132.569V51.6977ZM132.569 54.0233H134.895V56.3488H132.569V54.0233ZM132.569 56.3488H134.895V58.6744H132.569V56.3488ZM132.569 58.6744H134.895V61H132.569V58.6744ZM130.244 58.6744H132.569V61H130.244V58.6744ZM130.244 56.3488H132.569V58.6744H130.244V56.3488ZM134.895 51.6977H137.221V54.0233H134.895V51.6977ZM137.221 51.6977H139.546V54.0233H137.221V51.6977ZM137.221 54.0233H139.546V56.3488H137.221V54.0233ZM134.895 54.0233H137.221V56.3488H134.895V54.0233ZM139.546 51.6977H141.872V54.0233H139.546V51.6977ZM141.872 51.6977H144.197V54.0233H141.872V51.6977ZM139.546 54.0233H141.872V56.3488H139.546V54.0233ZM139.546 49.3721H141.872V51.6977H139.546V49.3721ZM139.546 47.0465H141.872V49.3721H139.546V47.0465ZM141.872 47.0465H144.197V49.3721H141.872V47.0465ZM141.872 49.3721H144.197V51.6977H141.872V49.3721ZM144.197 47.0465H146.523V49.3721H144.197V47.0465ZM146.523 44.7209H148.849V47.0465H146.523V44.7209ZM146.523 42.3953H148.849V44.7209H146.523V42.3953ZM146.523 40.0698H148.849V42.3953H146.523V40.0698ZM144.197 40.0698H146.523V42.3953H144.197V40.0698ZM141.872 40.0698H144.197V42.3953H141.872V40.0698ZM141.872 42.3953H144.197V44.7209H141.872V42.3953ZM139.546 42.3953H141.872V44.7209H139.546V42.3953ZM139.546 44.7209H141.872V47.0465H139.546V44.7209ZM141.872 44.7209H144.197V47.0465H141.872V44.7209ZM144.197 44.7209H146.523V47.0465H144.197V44.7209ZM144.197 42.3953H146.523V44.7209H144.197V42.3953ZM139.546 40.0698H141.872V42.3953H139.546V40.0698ZM139.546 37.7442H141.872V40.0698H139.546V37.7442ZM141.872 37.7442H144.197V40.0698H141.872V37.7442ZM141.872 35.4186H144.197V37.7442H141.872V35.4186ZM144.197 35.4186H146.523V37.7442H144.197V35.4186ZM146.523 35.4186H148.849V37.7442H146.523V35.4186ZM146.523 37.7442H148.849V40.0698H146.523V37.7442ZM144.197 37.7442H146.523V40.0698H144.197V37.7442ZM139.546 35.4186H141.872V37.7442H139.546V35.4186ZM139.546 33.093H141.872V35.4186H139.546V33.093ZM141.872 33.093H144.197V35.4186H141.872V33.093ZM141.872 30.7674H144.197V33.093H141.872V30.7674ZM144.197 30.7674H146.523V33.093H144.197V30.7674ZM146.523 30.7674H148.849V33.093H146.523V30.7674ZM146.523 33.093H148.849V35.4186H146.523V33.093ZM144.197 33.093H146.523V35.4186H144.197V33.093ZM139.546 30.7674H141.872V33.093H139.546V30.7674ZM130.244 21.4651H132.569V23.7907H130.244V21.4651ZM130.244 23.7907H132.569V26.1163H130.244V23.7907ZM132.569 23.7907H134.895V26.1163H132.569V23.7907ZM132.569 21.4651H134.895V23.7907H132.569V21.4651ZM127.918 26.1163H130.244V28.4419H127.918V26.1163ZM125.593 26.1163H127.918V28.4419H125.593V26.1163ZM127.918 28.4419H130.244V30.7674H127.918V28.4419ZM125.593 28.4419H127.918V30.7674H125.593V28.4419ZM134.895 21.4651H137.221V23.7907H134.895V21.4651ZM137.221 21.4651H139.546V23.7907H137.221V21.4651ZM137.221 23.7907H139.546V26.1163H137.221V23.7907ZM134.895 23.7907H137.221V26.1163H134.895V23.7907ZM139.546 21.4651H141.872V23.7907H139.546V21.4651ZM141.872 21.4651H144.197V23.7907H141.872V21.4651ZM141.872 23.7907H144.197V26.1163H141.872V23.7907ZM139.546 23.7907H141.872V26.1163H139.546V23.7907ZM148.849 28.4419H151.174V30.7674H148.849V28.4419ZM148.849 26.1163H151.174V28.4419H148.849V26.1163ZM151.174 26.1163H153.5V28.4419H151.174V26.1163ZM151.174 28.4419H153.5V30.7674H151.174V28.4419ZM146.523 26.1163H148.849V28.4419H146.523V26.1163ZM144.197 26.1163H146.523V28.4419H144.197V26.1163ZM141.872 26.1163H144.197V28.4419H141.872V26.1163ZM139.546 26.1163H141.872V28.4419H139.546V26.1163ZM141.872 28.4419H144.197V30.7674H141.872V28.4419ZM144.197 28.4419H146.523V30.7674H144.197V28.4419ZM146.523 28.4419H148.849V30.7674H146.523V28.4419ZM139.546 28.4419H141.872V30.7674H139.546V28.4419ZM123.267 56.3488H125.593V58.6744H123.267V56.3488ZM144.197 23.7907H146.523V26.1163H144.197V23.7907ZM123.267 28.4419H125.593V30.7674H123.267V28.4419ZM134.895 56.3488H137.221V58.6744H134.895V56.3488ZM144.197 49.3721H146.523V51.6977H144.197V49.3721ZM146.523 47.0465H148.849V49.3721H146.523V47.0465ZM146.523 49.3721H148.849V51.6977H146.523V49.3721ZM146.523 51.6977H148.849V54.0233H146.523V51.6977ZM144.197 51.6977H146.523V54.0233H144.197V51.6977ZM148.849 51.6977H151.174V54.0233H148.849V51.6977ZM151.174 51.6977H153.5V54.0233H151.174V51.6977ZM151.174 54.0233H153.5V56.3488H151.174V54.0233ZM148.849 54.0233H151.174V56.3488H148.849V54.0233ZM144.197 54.0233H146.523V56.3488H144.197V54.0233ZM141.872 54.0233H144.197V56.3488H141.872V54.0233ZM146.523 54.0233H148.849V56.3488H146.523V54.0233ZM144.197 56.3488H146.523V58.6744H144.197V56.3488ZM141.872 56.3488H144.197V58.6744H141.872V56.3488ZM146.523 56.3488H148.849V58.6744H146.523V56.3488ZM148.849 56.3488H151.174V58.6744H148.849V56.3488ZM146.523 58.6744H148.849V61H146.523V58.6744ZM141.872 58.6744H144.197V61H141.872V58.6744ZM144.197 58.6744H146.523V61H144.197V58.6744ZM127.918 23.7907H130.244V26.1163H127.918V23.7907ZM165.162 58.6744H167.487V61H165.162V58.6744ZM167.487 58.6744H169.813V61H167.487V58.6744ZM162.836 56.3488H165.162V58.6744H162.836V56.3488ZM165.162 56.3488H167.487V58.6744H165.162V56.3488ZM167.487 56.3488H169.813V58.6744H167.487V56.3488ZM169.813 56.3488H172.138V58.6744H169.813V56.3488ZM160.511 54.0233H162.836V56.3488H160.511V54.0233ZM162.836 54.0233H165.162V56.3488H162.836V54.0233ZM162.836 51.6977H165.162V54.0233H162.836V51.6977ZM165.162 51.6977H167.487V54.0233H165.162V51.6977ZM165.162 54.0233H167.487V56.3488H165.162V54.0233ZM167.487 54.0233H169.813V56.3488H167.487V54.0233ZM169.813 54.0233H172.138V56.3488H169.813V54.0233ZM169.813 51.6977H172.138V54.0233H169.813V51.6977ZM172.138 54.0233H174.464V56.3488H172.138V54.0233ZM167.487 51.6977H169.813V54.0233H167.487V51.6977ZM165.162 49.3721H167.487V51.6977H165.162V49.3721ZM167.487 49.3721H169.813V51.6977H167.487V49.3721ZM169.813 49.3721H172.138V51.6977H169.813V49.3721ZM169.813 47.0465H172.138V49.3721H169.813V47.0465ZM167.487 47.0465H169.813V49.3721H167.487V47.0465ZM165.162 47.0465H167.487V49.3721H165.162V47.0465ZM165.162 44.7209H167.487V47.0465H165.162V44.7209ZM165.162 42.3953H167.487V44.7209H165.162V42.3953ZM165.162 40.0698H167.487V42.3953H165.162V40.0698ZM165.162 37.7442H167.487V40.0698H165.162V37.7442ZM165.162 35.4186H167.487V37.7442H165.162V35.4186ZM167.487 35.4186H169.813V37.7442H167.487V35.4186ZM169.813 35.4186H172.138V37.7442H169.813V35.4186ZM169.813 37.7442H172.138V40.0698H169.813V37.7442ZM169.813 40.0698H172.138V42.3953H169.813V40.0698ZM169.813 42.3953H172.138V44.7209H169.813V42.3953ZM167.487 42.3953H169.813V44.7209H167.487V42.3953ZM167.487 44.7209H169.813V47.0465H167.487V44.7209ZM167.487 40.0698H169.813V42.3953H167.487V40.0698ZM167.487 37.7442H169.813V40.0698H167.487V37.7442ZM169.813 44.7209H172.138V47.0465H169.813V44.7209ZM169.813 33.093H172.138V35.4186H169.813V33.093ZM169.813 30.7674H172.138V33.093H169.813V30.7674ZM169.813 28.4419H172.138V30.7674H169.813V28.4419ZM169.813 26.1163H172.138V28.4419H169.813V26.1163ZM165.162 23.7907H167.487V26.1163H165.162V23.7907ZM167.487 26.1163H169.813V28.4419H167.487V26.1163ZM167.487 28.4419H169.813V30.7674H167.487V28.4419ZM167.487 30.7674H169.813V33.093H167.487V30.7674ZM167.487 33.093H169.813V35.4186H167.487V33.093ZM165.162 33.093H167.487V35.4186H165.162V33.093ZM165.162 30.7674H167.487V33.093H165.162V30.7674ZM165.162 28.4419H167.487V30.7674H165.162V28.4419ZM165.162 26.1163H167.487V28.4419H165.162V26.1163ZM162.836 49.3721H165.162V51.6977H162.836V49.3721ZM162.836 47.0465H165.162V49.3721H162.836V47.0465ZM162.836 44.7209H165.162V47.0465H162.836V44.7209ZM162.836 42.3953H165.162V44.7209H162.836V42.3953ZM162.836 40.0698H165.162V42.3953H162.836V40.0698ZM162.836 37.7442H165.162V40.0698H162.836V37.7442ZM162.836 35.4186H165.162V37.7442H162.836V35.4186ZM162.836 33.093H165.162V35.4186H162.836V33.093ZM162.836 30.7674H165.162V33.093H162.836V30.7674ZM162.836 28.4419H165.162V30.7674H162.836V28.4419ZM162.836 23.7907H165.162V26.1163H162.836V23.7907ZM162.836 26.1163H165.162V28.4419H162.836V26.1163ZM160.511 26.1163H162.836V28.4419H160.511V26.1163ZM158.185 28.4419H160.511V30.7674H158.185V28.4419ZM160.511 28.4419H162.836V30.7674H160.511V28.4419ZM158.185 51.6977H160.511V54.0233H158.185V51.6977ZM160.511 51.6977H162.836V54.0233H160.511V51.6977ZM158.185 26.1163H160.511V28.4419H158.185V26.1163ZM172.138 51.6977H174.464V54.0233H172.138V51.6977ZM158.185 54.0233H160.511V56.3488H158.185V54.0233ZM162.836 58.6744H165.162V61H162.836V58.6744ZM160.511 23.7907H162.836V26.1163H160.511V23.7907ZM172.138 23.7907H174.464V26.1163H172.138V23.7907ZM174.464 21.4651H176.79V23.7907H174.464V21.4651ZM174.464 23.7907H176.79V26.1163H174.464V23.7907ZM176.79 23.7907H179.115V26.1163H176.79V23.7907ZM176.79 21.4651H179.115V23.7907H176.79V21.4651ZM179.115 21.4651H181.441V23.7907H179.115V21.4651ZM179.115 23.7907H181.441V26.1163H179.115V23.7907ZM181.441 23.7907H183.766V26.1163H181.441V23.7907ZM181.441 21.4651H183.766V23.7907H181.441V21.4651ZM183.766 23.7907H186.092V26.1163H183.766V23.7907ZM179.115 26.1163H181.441V28.4419H179.115V26.1163ZM176.79 26.1163H179.115V28.4419H176.79V26.1163ZM179.115 28.4419H181.441V30.7674H179.115V28.4419ZM181.441 28.4419H183.766V30.7674H181.441V28.4419ZM183.766 28.4419H186.092V30.7674H183.766V28.4419ZM183.766 26.1163H186.092V28.4419H183.766V26.1163ZM181.441 26.1163H183.766V28.4419H181.441V26.1163ZM165.162 21.4651H167.487V23.7907H165.162V21.4651ZM162.836 21.4651H165.162V23.7907H162.836V21.4651ZM172.138 26.1163H174.464V28.4419H172.138V26.1163ZM169.813 23.7907H172.138V26.1163H169.813V23.7907ZM172.138 21.4651H174.464V23.7907H172.138V21.4651ZM197.761 56.3488H200.086V58.6744H197.761V56.3488ZM200.086 56.3488H202.412V58.6744H200.086V56.3488ZM190.784 54.0233H193.11V56.3488H190.784V54.0233ZM193.11 54.0233H195.435V56.3488H193.11V54.0233ZM193.11 51.6977H195.435V54.0233H193.11V51.6977ZM195.435 51.6977H197.761V54.0233H195.435V51.6977ZM195.435 54.0233H197.761V56.3488H195.435V54.0233ZM197.761 54.0233H200.086V56.3488H197.761V54.0233ZM200.086 54.0233H202.412V56.3488H200.086V54.0233ZM200.086 51.6977H202.412V54.0233H200.086V51.6977ZM197.761 51.6977H200.086V54.0233H197.761V51.6977ZM195.435 49.3721H197.761V51.6977H195.435V49.3721ZM197.761 49.3721H200.086V51.6977H197.761V49.3721ZM200.086 49.3721H202.412V51.6977H200.086V49.3721ZM200.086 47.0465H202.412V49.3721H200.086V47.0465ZM197.761 47.0465H200.086V49.3721H197.761V47.0465ZM195.435 47.0465H197.761V49.3721H195.435V47.0465ZM195.435 44.7209H197.761V47.0465H195.435V44.7209ZM195.435 42.3953H197.761V44.7209H195.435V42.3953ZM195.435 40.0698H197.761V42.3953H195.435V40.0698ZM195.435 37.7442H197.761V40.0698H195.435V37.7442ZM195.435 35.4186H197.761V37.7442H195.435V35.4186ZM197.761 35.4186H200.086V37.7442H197.761V35.4186ZM200.086 35.4186H202.412V37.7442H200.086V35.4186ZM200.086 37.7442H202.412V40.0698H200.086V37.7442ZM200.086 40.0698H202.412V42.3953H200.086V40.0698ZM200.086 42.3953H202.412V44.7209H200.086V42.3953ZM197.761 42.3953H200.086V44.7209H197.761V42.3953ZM197.761 44.7209H200.086V47.0465H197.761V44.7209ZM197.761 40.0698H200.086V42.3953H197.761V40.0698ZM197.761 37.7442H200.086V40.0698H197.761V37.7442ZM200.086 44.7209H202.412V47.0465H200.086V44.7209ZM200.086 33.093H202.412V35.4186H200.086V33.093ZM200.086 30.7674H202.412V33.093H200.086V30.7674ZM200.086 28.4419H202.412V30.7674H200.086V28.4419ZM200.086 26.1163H202.412V28.4419H200.086V26.1163ZM200.086 23.7907H202.412V26.1163H200.086V23.7907ZM195.435 23.7907H197.761V26.1163H195.435V23.7907ZM197.761 26.1163H200.086V28.4419H197.761V26.1163ZM197.761 28.4419H200.086V30.7674H197.761V28.4419ZM197.761 30.7674H200.086V33.093H197.761V30.7674ZM197.761 33.093H200.086V35.4186H197.761V33.093ZM195.435 33.093H197.761V35.4186H195.435V33.093ZM195.435 30.7674H197.761V33.093H195.435V30.7674ZM195.435 28.4419H197.761V30.7674H195.435V28.4419ZM195.435 26.1163H197.761V28.4419H195.435V26.1163ZM197.761 23.7907H200.086V26.1163H197.761V23.7907ZM193.11 49.3721H195.435V51.6977H193.11V49.3721ZM193.11 47.0465H195.435V49.3721H193.11V47.0465ZM193.11 44.7209H195.435V47.0465H193.11V44.7209ZM193.11 42.3953H195.435V44.7209H193.11V42.3953ZM193.11 40.0698H195.435V42.3953H193.11V40.0698ZM193.11 37.7442H195.435V40.0698H193.11V37.7442ZM193.11 35.4186H195.435V37.7442H193.11V35.4186ZM193.11 33.093H195.435V35.4186H193.11V33.093ZM193.11 30.7674H195.435V33.093H193.11V30.7674ZM193.11 28.4419H195.435V30.7674H193.11V28.4419ZM193.11 23.7907H195.435V26.1163H193.11V23.7907ZM193.11 26.1163H195.435V28.4419H193.11V26.1163ZM188.458 51.6977H190.784V54.0233H188.458V51.6977ZM190.784 51.6977H193.11V54.0233H190.784V51.6977ZM188.458 54.0233H190.784V56.3488H188.458V54.0233ZM188.458 21.4651H190.784V23.7907H188.458V21.4651ZM190.784 21.4651H193.11V23.7907H190.784V21.4651ZM190.784 23.7907H193.11V26.1163H190.784V23.7907ZM188.458 23.7907H190.784V26.1163H188.458V23.7907ZM202.412 23.7907H204.737V26.1163H202.412V23.7907ZM202.412 21.4651H204.737V23.7907H202.412V21.4651ZM204.737 21.4651H207.063V23.7907H204.737V21.4651ZM204.737 23.7907H207.063V26.1163H204.737V23.7907ZM193.11 21.4651H195.435V23.7907H193.11V21.4651ZM195.435 21.4651H197.761V23.7907H195.435V21.4651ZM197.761 21.4651H200.086V23.7907H197.761V21.4651ZM200.086 21.4651H202.412V23.7907H200.086V21.4651ZM200.086 19.1395H202.412V21.4651H200.086V19.1395ZM200.086 16.814H202.412V19.1395H200.086V16.814ZM200.086 14.4884H202.412V16.814H200.086V14.4884ZM197.761 14.4884H200.086V16.814H197.761V14.4884ZM195.435 14.4884H197.761V16.814H195.435V14.4884ZM195.435 16.814H197.761V19.1395H195.435V16.814ZM195.435 19.1395H197.761V21.4651H195.435V19.1395ZM197.761 19.1395H200.086V21.4651H197.761V19.1395ZM197.761 16.814H200.086V19.1395H197.761V16.814ZM193.11 19.1395H195.435V21.4651H193.11V19.1395ZM193.11 16.814H195.435V19.1395H193.11V16.814ZM193.11 14.4884H195.435V16.814H193.11V14.4884ZM200.086 9.83721H202.412V12.1628H200.086V9.83721ZM197.761 9.83721H200.086V12.1628H197.761V9.83721ZM197.761 12.1628H200.086V14.4884H197.761V12.1628ZM200.086 12.1628H202.412V14.4884H200.086V12.1628ZM200.086 7.51163H202.412V9.83721H200.086V7.51163ZM195.435 12.1628H197.761V14.4884H195.435V12.1628ZM207.063 21.4651H209.389V23.7907H207.063V21.4651ZM207.063 23.7907H209.389V26.1163H207.063V23.7907ZM207.063 51.6977H209.389V54.0233H207.063V51.6977ZM207.063 54.0233H209.389V56.3488H207.063V54.0233ZM204.737 54.0233H207.063V56.3488H204.737V54.0233ZM202.412 56.3488H204.737V58.6744H202.412V56.3488ZM200.086 58.6744H202.412V61H200.086V58.6744ZM197.761 58.6744H200.086V61H197.761V58.6744ZM209.389 23.7907H211.714V26.1163H209.389V23.7907ZM209.389 21.4651H211.714V23.7907H209.389V21.4651ZM202.412 51.6977H204.737V54.0233H202.412V51.6977ZM204.737 51.6977H207.063V54.0233H204.737V51.6977ZM209.389 51.6977H211.714V54.0233H209.389V51.6977ZM202.412 54.0233H204.737V56.3488H202.412V54.0233ZM202.412 58.6744H204.737V61H202.412V58.6744ZM204.737 56.3488H207.063V58.6744H204.737V56.3488ZM223.365 28.4419H225.69V30.7674H223.365V28.4419ZM221.039 28.4419H223.365V30.7674H221.039V28.4419ZM221.039 30.7674H223.365V33.093H221.039V30.7674ZM223.365 30.7674H225.69V33.093H223.365V30.7674ZM223.365 33.093H225.69V35.4186H223.365V33.093ZM221.039 33.093H223.365V35.4186H221.039V33.093ZM221.039 35.4186H223.365V37.7442H221.039V35.4186ZM223.365 35.4186H225.69V37.7442H223.365V35.4186ZM223.365 37.7442H225.69V40.0698H223.365V37.7442ZM221.039 37.7442H223.365V40.0698H221.039V37.7442ZM221.039 40.0698H223.365V42.3953H221.039V40.0698ZM223.365 40.0698H225.69V42.3953H223.365V40.0698ZM223.365 42.3953H225.69V44.7209H223.365V42.3953ZM221.039 42.3953H223.365V44.7209H221.039V42.3953ZM218.714 28.4419H221.039V30.7674H218.714V28.4419ZM216.388 28.4419H218.714V30.7674H216.388V28.4419ZM216.388 30.7674H218.714V33.093H216.388V30.7674ZM218.714 30.7674H221.039V33.093H218.714V30.7674ZM218.714 33.093H221.039V35.4186H218.714V33.093ZM216.388 33.093H218.714V35.4186H216.388V33.093ZM216.388 35.4186H218.714V37.7442H216.388V35.4186ZM218.714 35.4186H221.039V37.7442H218.714V35.4186ZM218.714 37.7442H221.039V40.0698H218.714V37.7442ZM216.388 37.7442H218.714V40.0698H216.388V37.7442ZM216.388 40.0698H218.714V42.3953H216.388V40.0698ZM218.714 40.0698H221.039V42.3953H218.714V40.0698ZM218.714 42.3953H221.039V44.7209H218.714V42.3953ZM216.388 42.3953H218.714V44.7209H216.388V42.3953ZM223.365 44.7209H225.69V47.0465H223.365V44.7209ZM221.039 44.7209H223.365V47.0465H221.039V44.7209ZM221.039 47.0465H223.365V49.3721H221.039V47.0465ZM223.365 47.0465H225.69V49.3721H223.365V47.0465ZM225.69 47.0465H228.016V49.3721H225.69V47.0465ZM221.039 49.3721H223.365V51.6977H221.039V49.3721ZM223.365 49.3721H225.69V51.6977H223.365V49.3721ZM225.69 49.3721H228.016V51.6977H225.69V49.3721ZM228.016 49.3721H230.342V51.6977H228.016V49.3721ZM230.342 51.6977H232.667V54.0233H230.342V51.6977ZM228.016 51.6977H230.342V54.0233H228.016V51.6977ZM225.69 51.6977H228.016V54.0233H225.69V51.6977ZM223.365 51.6977H225.69V54.0233H223.365V51.6977ZM230.342 54.0233H232.667V56.3488H230.342V54.0233ZM232.667 54.0233H234.993V56.3488H232.667V54.0233ZM232.667 56.3488H234.993V58.6744H232.667V56.3488ZM230.342 56.3488H232.667V58.6744H230.342V56.3488ZM234.993 54.0233H237.318V56.3488H234.993V54.0233ZM237.318 54.0233H239.644V56.3488H237.318V54.0233ZM237.318 56.3488H239.644V58.6744H237.318V56.3488ZM234.993 56.3488H237.318V58.6744H234.993V56.3488ZM239.644 54.0233H241.969V56.3488H239.644V54.0233ZM241.969 54.0233H244.295V56.3488H241.969V54.0233ZM241.969 56.3488H244.295V58.6744H241.969V56.3488ZM239.644 56.3488H241.969V58.6744H239.644V56.3488ZM244.295 54.0233H246.621V56.3488H244.295V54.0233ZM246.621 54.0233H248.946V56.3488H246.621V54.0233ZM246.621 56.3488H248.946V58.6744H246.621V56.3488ZM244.295 56.3488H246.621V58.6744H244.295V56.3488ZM248.946 54.0233H251.272V56.3488H248.946V54.0233ZM253.597 54.0233H255.923V56.3488H253.597V54.0233ZM253.597 56.3488H255.923V58.6744H253.597V56.3488ZM248.946 56.3488H251.272V58.6744H248.946V56.3488ZM255.923 54.0233H258.249V56.3488H255.923V54.0233ZM258.249 54.0233H260.574V56.3488H258.249V54.0233ZM260.574 51.6977H262.9V54.0233H260.574V51.6977ZM262.9 47.0465H265.225V49.3721H262.9V47.0465ZM265.225 44.7209H267.551V47.0465H265.225V44.7209ZM265.225 47.0465H267.551V49.3721H265.225V47.0465ZM228.016 54.0233H230.342V56.3488H228.016V54.0233ZM218.714 44.7209H221.039V47.0465H218.714V44.7209ZM225.69 54.0233H228.016V56.3488H225.69V54.0233ZM228.016 56.3488H230.342V58.6744H228.016V56.3488ZM262.9 49.3721H265.225V51.6977H262.9V49.3721ZM218.714 47.0465H221.039V49.3721H218.714V47.0465ZM216.388 44.7209H218.714V47.0465H216.388V44.7209ZM218.714 49.3721H221.039V51.6977H218.714V49.3721ZM221.039 51.6977H223.365V54.0233H221.039V51.6977ZM223.365 54.0233H225.69V56.3488H223.365V54.0233ZM232.667 51.6977H234.993V54.0233H232.667V51.6977ZM225.69 44.7209H228.016V47.0465H225.69V44.7209ZM258.249 51.6977H260.574V54.0233H258.249V51.6977ZM255.923 56.3488H258.249V58.6744H255.923V56.3488ZM232.667 58.6744H234.993V61H232.667V58.6744ZM234.993 58.6744H237.318V61H234.993V58.6744ZM237.318 58.6744H239.644V61H237.318V58.6744ZM239.644 58.6744H241.969V61H239.644V58.6744ZM241.969 58.6744H244.295V61H241.969V58.6744ZM244.295 58.6744H246.621V61H244.295V58.6744ZM246.621 58.6744H248.946V61H246.621V58.6744ZM248.946 58.6744H251.272V61H248.946V58.6744ZM223.365 28.4419V26.1163H225.69V28.4419H223.365ZM223.365 26.1163V23.7907H225.69V26.1163H223.365ZM223.365 23.7907V21.4651H225.69V23.7907H223.365ZM223.365 21.4651V19.1395H225.69V21.4651H223.365ZM216.388 28.4419V26.1163H218.714V28.4419H216.388ZM216.388 26.1163V23.7907H218.714V26.1163H216.388ZM216.388 23.7907V21.4651H218.714V23.7907H216.388ZM223.365 19.1395V16.814H225.69V19.1395H223.365ZM221.039 19.1395V16.814H223.365V19.1395H221.039ZM221.039 16.814V14.4884H223.365V16.814H221.039ZM223.365 16.814V14.4884H225.69V16.814H223.365ZM225.69 16.814V14.4884H228.016V16.814H225.69ZM221.039 14.4884V12.1628H223.365V14.4884H221.039ZM223.365 14.4884V12.1628H225.69V14.4884H223.365ZM225.69 14.4884V12.1628H228.016V14.4884H225.69ZM228.016 14.4884V12.1628H230.342V14.4884H228.016ZM228.016 12.1628V9.83721H230.342V12.1628H228.016ZM225.69 12.1628V9.83721H228.016V12.1628H225.69ZM223.365 12.1628V9.83721H225.69V12.1628H223.365ZM230.342 9.83721V7.51163H232.667V9.83721H230.342ZM232.667 7.51163V5.18604H234.993V7.51163H232.667ZM230.342 7.51163V5.18604H232.667V7.51163H230.342ZM228.016 9.83721V7.51163H230.342V9.83721H228.016ZM218.714 19.1395V16.814H221.039V19.1395H218.714ZM225.69 9.83721V7.51163H228.016V9.83721H225.69ZM228.016 7.51163V5.18604H230.342V7.51163H228.016ZM225.69 19.1395V16.814H228.016V19.1395H225.69ZM232.667 5.18604V2.86047H234.993V5.18604H232.667ZM234.993 5.18604V2.86047H237.318V5.18604H234.993ZM218.714 19.1395H221.039V21.4651H218.714V19.1395ZM221.039 19.1395H223.365V21.4651H221.039V19.1395ZM221.039 21.4651H223.365V23.7907H221.039V21.4651ZM221.039 23.7907H223.365V26.1163H221.039V23.7907ZM221.039 26.1163H223.365V28.4419H221.039V26.1163ZM218.714 26.1163H221.039V28.4419H218.714V26.1163ZM218.714 23.7907H221.039V26.1163H218.714V23.7907ZM218.714 21.4651H221.039V23.7907H218.714V21.4651ZM230.342 21.4651H232.667V23.7907H230.342V21.4651ZM232.667 21.4651H234.993V23.7907H232.667V21.4651ZM232.667 23.7907H234.993V26.1163H232.667V23.7907ZM230.342 23.7907H232.667V26.1163H230.342V23.7907ZM234.993 21.4651H237.318V23.7907H234.993V21.4651ZM237.318 23.7907H239.644V26.1163H237.318V23.7907ZM234.993 23.7907H237.318V26.1163H234.993V23.7907ZM237.318 21.4651H239.644V23.7907H237.318V21.4651ZM232.667 30.7674H234.993V33.093H232.667V30.7674ZM230.342 30.7674H232.667V33.093H230.342V30.7674ZM230.342 33.093H232.667V35.4186H230.342V33.093ZM232.667 33.093H234.993V35.4186H232.667V33.093ZM237.318 30.7674H239.644V33.093H237.318V30.7674ZM234.993 30.7674H237.318V33.093H234.993V30.7674ZM237.318 33.093H239.644V35.4186H237.318V33.093ZM234.993 33.093H237.318V35.4186H234.993V33.093ZM239.644 21.4651H241.969V23.7907H239.644V21.4651ZM241.969 21.4651H244.295V23.7907H241.969V21.4651ZM241.969 23.7907H244.295V26.1163H241.969V23.7907ZM241.969 26.1163H244.295V28.4419H241.969V26.1163ZM241.969 28.4419H244.295V30.7674H241.969V28.4419ZM241.969 30.7674H244.295V33.093H241.969V30.7674ZM241.969 33.093H244.295V35.4186H241.969V33.093ZM239.644 33.093H241.969V35.4186H239.644V33.093ZM239.644 30.7674H241.969V33.093H239.644V30.7674ZM239.644 28.4419H241.969V30.7674H239.644V28.4419ZM239.644 26.1163H241.969V28.4419H239.644V26.1163ZM239.644 23.7907H241.969V26.1163H239.644V23.7907ZM239.644 19.1395H241.969V21.4651H239.644V19.1395ZM239.644 16.814H241.969V19.1395H239.644V16.814ZM241.969 16.814H244.295V19.1395H241.969V16.814ZM241.969 19.1395H244.295V21.4651H241.969V19.1395ZM241.969 14.4884H244.295V16.814H241.969V14.4884ZM241.969 12.1628H244.295V14.4884H241.969V12.1628ZM239.644 12.1628H241.969V14.4884H239.644V12.1628ZM239.644 14.4884H241.969V16.814H239.644V14.4884ZM239.644 35.4186H241.969V37.7442H239.644V35.4186ZM241.969 35.4186H244.295V37.7442H241.969V35.4186ZM241.969 37.7442H244.295V40.0698H241.969V37.7442ZM239.644 37.7442H241.969V40.0698H239.644V37.7442ZM239.644 40.0698H241.969V42.3953H239.644V40.0698ZM241.969 40.0698H244.295V42.3953H241.969V40.0698ZM241.969 42.3953H244.295V44.7209H241.969V42.3953ZM239.644 42.3953H241.969V44.7209H239.644V42.3953ZM244.295 9.83721H246.621V12.1628H244.295V9.83721ZM244.295 7.51163H246.621V9.83721H244.295V7.51163ZM246.621 7.51163H248.946V9.83721H246.621V7.51163ZM244.295 16.814H246.621V19.1395H244.295V16.814ZM246.621 19.1395H248.946V21.4651H246.621V19.1395ZM246.621 21.4651H248.946V23.7907H246.621V21.4651ZM244.295 23.7907H246.621V26.1163H244.295V23.7907ZM244.295 26.1163H246.621V28.4419H244.295V26.1163ZM244.295 28.4419H246.621V30.7674H244.295V28.4419ZM244.295 19.1395H246.621V21.4651H244.295V19.1395ZM244.295 21.4651H246.621V23.7907H244.295V21.4651ZM246.621 23.7907H248.946V26.1163H246.621V23.7907ZM246.621 26.1163H248.946V28.4419H246.621V26.1163ZM246.621 28.4419H248.946V30.7674H246.621V28.4419ZM244.295 30.7674H246.621V33.093H244.295V30.7674ZM244.295 33.093H246.621V35.4186H244.295V33.093ZM246.621 33.093H248.946V35.4186H246.621V33.093ZM246.621 30.7674H248.946V33.093H246.621V30.7674ZM246.621 35.4186H248.946V37.7442H246.621V35.4186ZM246.621 37.7442H248.946V40.0698H246.621V37.7442ZM244.295 37.7442H246.621V40.0698H244.295V37.7442ZM244.295 35.4186H246.621V37.7442H244.295V35.4186ZM244.295 40.0698H246.621V42.3953H244.295V40.0698ZM246.621 40.0698H248.946V42.3953H246.621V40.0698ZM246.621 42.3953H248.946V44.7209H246.621V42.3953ZM244.295 42.3953H246.621V44.7209H244.295V42.3953ZM241.969 44.7209H244.295V47.0465H241.969V44.7209ZM239.644 44.7209H241.969V47.0465H239.644V44.7209ZM239.644 47.0465H241.969V49.3721H239.644V47.0465ZM241.969 47.0465H244.295V49.3721H241.969V47.0465ZM237.318 47.0465H239.644V49.3721H237.318V47.0465ZM234.993 47.0465H237.318V49.3721H234.993V47.0465ZM237.318 44.7209H239.644V47.0465H237.318V44.7209ZM248.946 5.18604H251.272V7.51163H248.946V5.18604ZM248.946 2.86047H251.272V5.18604H248.946V2.86047ZM251.272 2.86047H253.597V5.18604H251.272V2.86047ZM251.272 5.18604H253.597V7.51163H251.272V5.18604ZM255.923 5.18604H258.249V7.51163H255.923V5.18604ZM253.597 5.18604H255.923V7.51163H253.597V5.18604ZM253.597 2.86047H255.923V5.18604H253.597V2.86047ZM255.923 7.51163H258.249V9.83721H255.923V7.51163ZM253.597 7.51163H255.923V9.83721H253.597V7.51163ZM255.923 9.83721H258.249V12.1628H255.923V9.83721ZM258.249 7.51163H260.574V9.83721H258.249V7.51163ZM260.574 7.51163H262.9V9.83721H260.574V7.51163ZM258.249 9.83721H260.574V12.1628H258.249V9.83721ZM262.9 5.18604H265.225V7.51163H262.9V5.18604ZM265.225 2.86047H267.551V5.18604H265.225V2.86047ZM246.621 5.18604H248.946V7.51163H246.621V5.18604ZM241.969 9.83721H244.295V12.1628H241.969V9.83721ZM244.295 44.7209H246.621V47.0465H244.295V44.7209ZM244.295 12.1628H246.621V14.4884H244.295V12.1628ZM248.946 7.51163H251.272V9.83721H248.946V7.51163ZM237.318 2.86047H239.644V5.18604H237.318V2.86047ZM251.272 26.1163H253.597V28.4419H251.272V26.1163ZM251.272 28.4419H253.597V30.7674H251.272V28.4419ZM248.946 28.4419H251.272V30.7674H248.946V28.4419ZM253.597 26.1163H255.923V28.4419H253.597V26.1163ZM262.9 21.4651H265.225V23.7907H262.9V21.4651ZM265.225 21.4651H267.551V23.7907H265.225V21.4651ZM265.225 23.7907H267.551V26.1163H265.225V23.7907ZM262.9 23.7907H265.225V26.1163H262.9V23.7907ZM267.551 26.1163H269.876V28.4419H267.551V26.1163ZM269.876 26.1163H272.202V28.4419H269.876V26.1163ZM269.876 28.4419H272.202V30.7674H269.876V28.4419ZM267.551 28.4419H269.876V30.7674H267.551V28.4419ZM265.225 28.4419H267.551V30.7674H265.225V28.4419ZM262.9 26.1163H265.225V28.4419H262.9V26.1163ZM265.225 26.1163H267.551V28.4419H265.225V26.1163ZM262.9 28.4419H265.225V30.7674H262.9V28.4419ZM269.876 30.7674H272.202V33.093H269.876V30.7674ZM269.876 33.093H272.202V35.4186H269.876V33.093ZM269.876 35.4186H272.202V37.7442H269.876V35.4186ZM269.876 37.7442H272.202V40.0698H269.876V37.7442ZM267.551 37.7442H269.876V40.0698H267.551V37.7442ZM267.551 35.4186H269.876V37.7442H267.551V35.4186ZM267.551 33.093H269.876V35.4186H267.551V33.093ZM267.551 30.7674H269.876V33.093H267.551V30.7674ZM262.9 30.7674H265.225V33.093H262.9V30.7674ZM265.225 30.7674H267.551V33.093H265.225V30.7674ZM265.225 33.093H267.551V35.4186H265.225V33.093ZM265.225 35.4186H267.551V37.7442H265.225V35.4186ZM265.225 37.7442H267.551V40.0698H265.225V37.7442ZM262.9 35.4186H265.225V37.7442H262.9V35.4186ZM262.9 33.093H265.225V35.4186H262.9V33.093ZM267.551 40.0698H269.876V42.3953H267.551V40.0698ZM267.551 42.3953H269.876V44.7209H267.551V42.3953ZM265.225 40.0698H267.551V42.3953H265.225V40.0698ZM262.9 37.7442H265.225V40.0698H262.9V37.7442ZM265.225 42.3953H267.551V44.7209H265.225V42.3953ZM262.9 40.0698H265.225V42.3953H262.9V40.0698ZM262.9 42.3953H265.225V44.7209H262.9V42.3953ZM262.9 44.7209H265.225V47.0465H262.9V44.7209ZM265.225 49.3721H267.551V51.6977H265.225V49.3721ZM262.9 51.6977H265.225V54.0233H262.9V51.6977ZM260.574 54.0233H262.9V56.3488H260.574V54.0233ZM260.574 49.3721H262.9V51.6977H260.574V49.3721ZM251.272 54.0233H253.597V56.3488H251.272V54.0233ZM251.272 56.3488H253.597V58.6744H251.272V56.3488ZM251.272 58.6744H253.597V61H251.272V58.6744ZM253.597 23.7907H255.923V26.1163H253.597V23.7907ZM255.923 21.4651H258.249V23.7907H255.923V21.4651ZM255.923 23.7907H258.249V26.1163H255.923V23.7907ZM258.249 19.1395H260.574V21.4651H258.249V19.1395ZM260.574 16.814H262.9V19.1395H260.574V16.814ZM260.574 19.1395H262.9V21.4651H260.574V19.1395ZM262.9 19.1395H265.225V21.4651H262.9V19.1395ZM258.249 21.4651H260.574V23.7907H258.249V21.4651ZM262.9 16.814H265.225V19.1395H262.9V16.814ZM265.225 19.1395H267.551V21.4651H265.225V19.1395ZM267.551 21.4651H269.876V23.7907H267.551V21.4651ZM269.876 23.7907H272.202V26.1163H269.876V23.7907ZM267.551 23.7907H269.876V26.1163H267.551V23.7907ZM248.946 30.7674H251.272V33.093H248.946V30.7674ZM246.621 9.83721H248.946V12.1628H246.621V9.83721ZM251.272 7.51163H253.597V9.83721H251.272V7.51163ZM253.597 9.83721H255.923V12.1628H253.597V9.83721ZM255.923 12.1628H258.249V14.4884H255.923V12.1628ZM253.597 12.1628H255.923V14.4884H253.597V12.1628ZM251.272 9.83721H253.597V12.1628H251.272V9.83721ZM260.574 5.18604H262.9V7.51163H260.574V5.18604ZM262.9 2.86047H265.225V5.18604H262.9V2.86047ZM265.225 0.534885H267.551V2.86047H265.225V0.534885ZM248.946 9.83721H251.272V12.1628H248.946V9.83721ZM251.272 12.1628H253.597V14.4884H251.272V12.1628ZM253.597 14.4884H255.923V16.814H253.597V14.4884ZM258.249 56.3488H260.574V58.6744H258.249V56.3488ZM267.551 44.7209H269.876V47.0465H267.551V44.7209ZM269.876 40.0698H272.202V42.3953H269.876V40.0698ZM253.597 58.6744H255.923V61H253.597V58.6744ZM248.946 26.1163H251.272V28.4419H248.946V26.1163ZM251.272 23.7907H253.597V26.1163H251.272V23.7907ZM253.597 21.4651H255.923V23.7907H253.597V21.4651ZM255.923 19.1395H258.249V21.4651H255.923V19.1395ZM258.249 16.814H260.574V19.1395H258.249V16.814ZM246.621 16.814H248.946V19.1395H246.621V16.814ZM246.621 14.4884H248.946V16.814H246.621V14.4884ZM246.621 12.1628H248.946V14.4884H246.621V12.1628ZM244.295 14.4884H246.621V16.814H244.295V14.4884ZM283.814 30.7674H286.14V33.093H283.814V30.7674ZM286.14 30.7674H288.465V33.093H286.14V30.7674ZM286.14 33.093H288.465V35.4186H286.14V33.093ZM288.465 30.7674H290.791V33.093H288.465V30.7674ZM281.488 30.7674H283.814V33.093H281.488V30.7674ZM281.488 33.093H283.814V35.4186H281.488V33.093ZM281.488 37.7442H283.814V40.0698H281.488V37.7442ZM281.488 40.0698H283.814V42.3953H281.488V40.0698ZM281.488 42.3953H283.814V44.7209H281.488V42.3953ZM281.488 44.7209H283.814V47.0465H281.488V44.7209ZM281.488 47.0465H283.814V49.3721H281.488V47.0465ZM281.488 49.3721H283.814V51.6977H281.488V49.3721ZM283.814 49.3721H286.14V51.6977H283.814V49.3721ZM286.14 49.3721H288.465V51.6977H286.14V49.3721ZM286.14 47.0465H288.465V49.3721H286.14V47.0465ZM288.465 47.0465H290.791V49.3721H288.465V47.0465ZM288.465 44.7209H290.791V47.0465H288.465V44.7209ZM288.465 40.0698H290.791V42.3953H288.465V40.0698ZM288.465 37.7442H290.791V40.0698H288.465V37.7442ZM288.465 35.4186H290.791V37.7442H288.465V35.4186ZM288.465 33.093H290.791V35.4186H288.465V33.093ZM286.14 35.4186H288.465V37.7442H286.14V35.4186ZM286.14 37.7442H288.465V40.0698H286.14V37.7442ZM286.14 40.0698H288.465V42.3953H286.14V40.0698ZM286.14 42.3953H288.465V44.7209H286.14V42.3953ZM286.14 44.7209H288.465V47.0465H286.14V44.7209ZM288.465 42.3953H290.791V44.7209H288.465V42.3953ZM283.814 42.3953H286.14V44.7209H283.814V42.3953ZM283.814 40.0698H286.14V42.3953H283.814V40.0698ZM283.814 37.7442H286.14V40.0698H283.814V37.7442ZM283.814 35.4186H286.14V37.7442H283.814V35.4186ZM283.814 33.093H286.14V35.4186H283.814V33.093ZM281.488 35.4186H283.814V37.7442H281.488V35.4186ZM283.814 44.7209H286.14V47.0465H283.814V44.7209ZM283.814 47.0465H286.14V49.3721H283.814V47.0465ZM279.163 54.0233H281.488V56.3488H279.163V54.0233ZM276.837 54.0233H279.163V56.3488H276.837V54.0233ZM276.837 51.6977H279.163V54.0233H276.837V51.6977ZM279.163 51.6977H281.488V54.0233H279.163V51.6977ZM281.488 51.6977H283.814V54.0233H281.488V51.6977ZM281.488 54.0233H283.814V56.3488H281.488V54.0233ZM283.814 54.0233H286.14V56.3488H283.814V54.0233ZM286.14 54.0233H288.465V56.3488H286.14V54.0233ZM288.465 54.0233H290.791V56.3488H288.465V54.0233ZM288.465 51.6977H290.791V54.0233H288.465V51.6977ZM288.465 49.3721H290.791V51.6977H288.465V49.3721ZM286.14 51.6977H288.465V54.0233H286.14V51.6977ZM283.814 51.6977H286.14V54.0233H283.814V51.6977ZM286.14 56.3488H288.465V58.6744H286.14V56.3488ZM286.14 58.6744H288.465V61H286.14V58.6744ZM288.465 58.6744H290.791V61H288.465V58.6744ZM288.465 56.3488H290.791V58.6744H288.465V56.3488ZM290.791 54.0233H293.116V56.3488H290.791V54.0233ZM290.791 51.6977H293.116V54.0233H290.791V51.6977ZM293.116 51.6977H295.442V54.0233H293.116V51.6977ZM293.116 54.0233H295.442V56.3488H293.116V54.0233ZM293.116 56.3488H295.442V58.6744H293.116V56.3488ZM293.116 58.6744H295.442V61H293.116V58.6744ZM290.791 58.6744H293.116V61H290.791V58.6744ZM290.791 56.3488H293.116V58.6744H290.791V56.3488ZM295.442 51.6977H297.768V54.0233H295.442V51.6977ZM297.768 51.6977H300.093V54.0233H297.768V51.6977ZM297.768 54.0233H300.093V56.3488H297.768V54.0233ZM295.442 54.0233H297.768V56.3488H295.442V54.0233ZM300.093 51.6977H302.419V54.0233H300.093V51.6977ZM302.419 51.6977H304.744V54.0233H302.419V51.6977ZM300.093 54.0233H302.419V56.3488H300.093V54.0233ZM300.093 49.3721H302.419V51.6977H300.093V49.3721ZM300.093 47.0465H302.419V49.3721H300.093V47.0465ZM302.419 47.0465H304.744V49.3721H302.419V47.0465ZM302.419 49.3721H304.744V51.6977H302.419V49.3721ZM304.744 47.0465H307.07V49.3721H304.744V47.0465ZM307.07 44.7209H309.395V47.0465H307.07V44.7209ZM307.07 42.3953H309.395V44.7209H307.07V42.3953ZM307.07 40.0698H309.395V42.3953H307.07V40.0698ZM304.744 40.0698H307.07V42.3953H304.744V40.0698ZM302.419 40.0698H304.744V42.3953H302.419V40.0698ZM302.419 42.3953H304.744V44.7209H302.419V42.3953ZM300.093 42.3953H302.419V44.7209H300.093V42.3953ZM300.093 44.7209H302.419V47.0465H300.093V44.7209ZM302.419 44.7209H304.744V47.0465H302.419V44.7209ZM304.744 44.7209H307.07V47.0465H304.744V44.7209ZM304.744 42.3953H307.07V44.7209H304.744V42.3953ZM300.093 40.0698H302.419V42.3953H300.093V40.0698ZM300.093 37.7442H302.419V40.0698H300.093V37.7442ZM302.419 37.7442H304.744V40.0698H302.419V37.7442ZM302.419 35.4186H304.744V37.7442H302.419V35.4186ZM304.744 35.4186H307.07V37.7442H304.744V35.4186ZM307.07 35.4186H309.395V37.7442H307.07V35.4186ZM307.07 37.7442H309.395V40.0698H307.07V37.7442ZM304.744 37.7442H307.07V40.0698H304.744V37.7442ZM300.093 35.4186H302.419V37.7442H300.093V35.4186ZM300.093 33.093H302.419V35.4186H300.093V33.093ZM302.419 33.093H304.744V35.4186H302.419V33.093ZM302.419 30.7674H304.744V33.093H302.419V30.7674ZM304.744 30.7674H307.07V33.093H304.744V30.7674ZM307.07 30.7674H309.395V33.093H307.07V30.7674ZM307.07 33.093H309.395V35.4186H307.07V33.093ZM304.744 33.093H307.07V35.4186H304.744V33.093ZM300.093 30.7674H302.419V33.093H300.093V30.7674ZM290.791 21.4651H293.116V23.7907H290.791V21.4651ZM290.791 23.7907H293.116V26.1163H290.791V23.7907ZM293.116 23.7907H295.442V26.1163H293.116V23.7907ZM293.116 21.4651H295.442V23.7907H293.116V21.4651ZM288.465 26.1163H290.791V28.4419H288.465V26.1163ZM286.14 26.1163H288.465V28.4419H286.14V26.1163ZM288.465 28.4419H290.791V30.7674H288.465V28.4419ZM286.14 28.4419H288.465V30.7674H286.14V28.4419ZM295.442 26.1163H297.768V28.4419H295.442V26.1163ZM297.768 28.4419H300.093V30.7674H297.768V28.4419ZM297.768 26.1163H300.093V28.4419H297.768V26.1163ZM295.442 21.4651H297.768V23.7907H295.442V21.4651ZM297.768 21.4651H300.093V23.7907H297.768V21.4651ZM297.768 23.7907H300.093V26.1163H297.768V23.7907ZM295.442 23.7907H297.768V26.1163H295.442V23.7907ZM300.093 21.4651H302.419V23.7907H300.093V21.4651ZM302.419 21.4651H304.744V23.7907H302.419V21.4651ZM302.419 23.7907H304.744V26.1163H302.419V23.7907ZM300.093 23.7907H302.419V26.1163H300.093V23.7907ZM309.395 28.4419H311.721V30.7674H309.395V28.4419ZM309.395 26.1163H311.721V28.4419H309.395V26.1163ZM311.721 26.1163H314.047V28.4419H311.721V26.1163ZM311.721 28.4419H314.047V30.7674H311.721V28.4419ZM307.07 26.1163H309.395V28.4419H307.07V26.1163ZM304.744 26.1163H307.07V28.4419H304.744V26.1163ZM302.419 26.1163H304.744V28.4419H302.419V26.1163ZM300.093 26.1163H302.419V28.4419H300.093V26.1163ZM302.419 28.4419H304.744V30.7674H302.419V28.4419ZM304.744 28.4419H307.07V30.7674H304.744V28.4419ZM307.07 28.4419H309.395V30.7674H307.07V28.4419ZM300.093 28.4419H302.419V30.7674H300.093V28.4419ZM283.814 56.3488H286.14V58.6744H283.814V56.3488ZM304.744 23.7907H307.07V26.1163H304.744V23.7907ZM283.814 28.4419H286.14V30.7674H283.814V28.4419ZM295.442 56.3488H297.768V58.6744H295.442V56.3488ZM304.744 49.3721H307.07V51.6977H304.744V49.3721ZM307.07 47.0465H309.395V49.3721H307.07V47.0465ZM297.768 56.3488H300.093V58.6744H297.768V56.3488ZM295.442 58.6744H297.768V61H295.442V58.6744ZM288.465 23.7907H290.791V26.1163H288.465V23.7907ZM325.709 40.0698H328.034V42.3953H325.709V40.0698ZM325.709 42.3953H328.034V44.7209H325.709V42.3953ZM325.709 44.7209H328.034V47.0465H325.709V44.7209ZM325.709 47.0465H328.034V49.3721H325.709V47.0465ZM325.709 49.3721H328.034V51.6977H325.709V49.3721ZM328.034 49.3721H330.36V51.6977H328.034V49.3721ZM330.36 49.3721H332.685V51.6977H330.36V49.3721ZM330.36 47.0465H332.685V49.3721H330.36V47.0465ZM332.685 47.0465H335.011V49.3721H332.685V47.0465ZM332.685 44.7209H335.011V47.0465H332.685V44.7209ZM332.685 40.0698H335.011V42.3953H332.685V40.0698ZM332.685 37.7442H335.011V40.0698H332.685V37.7442ZM330.36 37.7442H332.685V40.0698H330.36V37.7442ZM330.36 40.0698H332.685V42.3953H330.36V40.0698ZM330.36 42.3953H332.685V44.7209H330.36V42.3953ZM330.36 44.7209H332.685V47.0465H330.36V44.7209ZM332.685 42.3953H335.011V44.7209H332.685V42.3953ZM328.034 42.3953H330.36V44.7209H328.034V42.3953ZM328.034 40.0698H330.36V42.3953H328.034V40.0698ZM328.034 37.7442H330.36V40.0698H328.034V37.7442ZM328.034 44.7209H330.36V47.0465H328.034V44.7209ZM328.034 47.0465H330.36V49.3721H328.034V47.0465ZM323.383 54.0233H325.709V56.3488H323.383V54.0233ZM321.057 54.0233H323.383V56.3488H321.057V54.0233ZM321.057 51.6977H323.383V54.0233H321.057V51.6977ZM323.383 51.6977H325.709V54.0233H323.383V51.6977ZM325.709 51.6977H328.034V54.0233H325.709V51.6977ZM325.709 54.0233H328.034V56.3488H325.709V54.0233ZM328.034 54.0233H330.36V56.3488H328.034V54.0233ZM330.36 54.0233H332.685V56.3488H330.36V54.0233ZM332.685 54.0233H335.011V56.3488H332.685V54.0233ZM332.685 51.6977H335.011V54.0233H332.685V51.6977ZM332.685 49.3721H335.011V51.6977H332.685V49.3721ZM330.36 51.6977H332.685V54.0233H330.36V51.6977ZM328.034 51.6977H330.36V54.0233H328.034V51.6977ZM330.36 56.3488H332.685V58.6744H330.36V56.3488ZM330.36 58.6744H332.685V61H330.36V58.6744ZM332.685 58.6744H335.011V61H332.685V58.6744ZM332.685 56.3488H335.011V58.6744H332.685V56.3488ZM335.011 54.0233H337.336V56.3488H335.011V54.0233ZM335.011 51.6977H337.336V54.0233H335.011V51.6977ZM337.336 51.6977H339.662V54.0233H337.336V51.6977ZM337.336 54.0233H339.662V56.3488H337.336V54.0233ZM337.336 56.3488H339.662V58.6744H337.336V56.3488ZM337.336 58.6744H339.662V61H337.336V58.6744ZM335.011 58.6744H337.336V61H335.011V58.6744ZM335.011 56.3488H337.336V58.6744H335.011V56.3488ZM339.662 51.6977H341.988V54.0233H339.662V51.6977ZM341.988 51.6977H344.313V54.0233H341.988V51.6977ZM341.988 54.0233H344.313V56.3488H341.988V54.0233ZM339.662 54.0233H341.988V56.3488H339.662V54.0233ZM344.313 51.6977H346.639V54.0233H344.313V51.6977ZM346.639 51.6977H348.964V54.0233H346.639V51.6977ZM344.313 54.0233H346.639V56.3488H344.313V54.0233ZM344.313 49.3721H346.639V51.6977H344.313V49.3721ZM344.313 47.0465H346.639V49.3721H344.313V47.0465ZM346.639 47.0465H348.964V49.3721H346.639V47.0465ZM346.639 49.3721H348.964V51.6977H346.639V49.3721ZM348.964 47.0465H351.29V49.3721H348.964V47.0465ZM351.29 44.7209H353.616V47.0465H351.29V44.7209ZM351.29 42.3953H353.616V44.7209H351.29V42.3953ZM351.29 40.0698H353.616V42.3953H351.29V40.0698ZM348.964 40.0698H351.29V42.3953H348.964V40.0698ZM346.639 40.0698H348.964V42.3953H346.639V40.0698ZM346.639 42.3953H348.964V44.7209H346.639V42.3953ZM344.313 42.3953H346.639V44.7209H344.313V42.3953ZM344.313 44.7209H346.639V47.0465H344.313V44.7209ZM346.639 44.7209H348.964V47.0465H346.639V44.7209ZM348.964 44.7209H351.29V47.0465H348.964V44.7209ZM348.964 42.3953H351.29V44.7209H348.964V42.3953ZM344.313 40.0698H346.639V42.3953H344.313V40.0698ZM346.639 37.7442H348.964V40.0698H346.639V37.7442ZM351.29 37.7442H353.616V40.0698H351.29V37.7442ZM348.964 37.7442H351.29V40.0698H348.964V37.7442ZM328.034 56.3488H330.36V58.6744H328.034V56.3488ZM339.662 56.3488H341.988V58.6744H339.662V56.3488ZM348.964 49.3721H351.29V51.6977H348.964V49.3721ZM351.29 47.0465H353.616V49.3721H351.29V47.0465ZM341.988 56.3488H344.313V58.6744H341.988V56.3488ZM339.662 58.6744H341.988V61H339.662V58.6744ZM344.313 30.7674H346.639V33.093H344.313V30.7674ZM346.639 30.7674H348.964V33.093H346.639V30.7674ZM348.964 30.7674H351.29V33.093H348.964V30.7674ZM351.29 30.7674H353.616V33.093H351.29V30.7674ZM351.29 33.093H353.616V35.4186H351.29V33.093ZM351.29 35.4186H353.616V37.7442H351.29V35.4186ZM348.964 35.4186H351.29V37.7442H348.964V35.4186ZM346.639 33.093H348.964V35.4186H346.639V33.093ZM348.964 33.093H351.29V35.4186H348.964V33.093ZM332.685 35.4186H335.011V37.7442H332.685V35.4186ZM330.36 35.4186H332.685V37.7442H330.36V35.4186ZM348.964 26.1163H351.29V28.4419H348.964V26.1163ZM346.639 26.1163H348.964V28.4419H346.639V26.1163ZM344.313 26.1163H346.639V28.4419H344.313V26.1163ZM341.988 26.1163H344.313V28.4419H341.988V26.1163ZM341.988 28.4419H344.313V30.7674H341.988V28.4419ZM344.313 28.4419H346.639V30.7674H344.313V28.4419ZM346.639 28.4419H348.964V30.7674H346.639V28.4419ZM348.964 28.4419H351.29V30.7674H348.964V28.4419ZM351.29 28.4419H353.616V30.7674H351.29V28.4419ZM344.313 23.7907H346.639V26.1163H344.313V23.7907ZM346.639 23.7907H348.964V26.1163H346.639V23.7907ZM325.709 37.7442H328.034V40.0698H325.709V37.7442ZM344.313 37.7442H346.639V40.0698H344.313V37.7442ZM353.616 28.4419H355.941V30.7674H353.616V28.4419ZM355.941 28.4419H358.267V30.7674H355.941V28.4419ZM355.941 30.7674H358.267V33.093H355.941V30.7674ZM353.616 30.7674H355.941V33.093H353.616V30.7674ZM346.639 35.4186H348.964V37.7442H346.639V35.4186ZM328.034 35.4186H330.36V37.7442H328.034V35.4186ZM325.709 35.4186H328.034V37.7442H325.709V35.4186ZM344.313 35.4186H346.639V37.7442H344.313V35.4186ZM344.313 33.093H346.639V35.4186H344.313V33.093ZM339.662 28.4419H341.988V30.7674H339.662V28.4419ZM341.988 30.7674H344.313V33.093H341.988V30.7674ZM339.662 26.1163H341.988V28.4419H339.662V26.1163ZM341.988 23.7907H344.313V26.1163H341.988V23.7907ZM339.662 23.7907H341.988V26.1163H339.662V23.7907ZM341.988 21.4651H344.313V23.7907H341.988V21.4651ZM344.313 21.4651H346.639V23.7907H344.313V21.4651ZM337.336 26.1163H339.662V28.4419H337.336V26.1163ZM325.709 30.7674H328.034V33.093H325.709V30.7674ZM328.034 30.7674H330.36V33.093H328.034V30.7674ZM330.36 30.7674H332.685V33.093H330.36V30.7674ZM332.685 30.7674H335.011V33.093H332.685V30.7674ZM332.685 33.093H335.011V35.4186H332.685V33.093ZM328.034 33.093H330.36V35.4186H328.034V33.093ZM330.36 33.093H332.685V35.4186H330.36V33.093ZM330.36 26.1163H332.685V28.4419H330.36V26.1163ZM328.034 26.1163H330.36V28.4419H328.034V26.1163ZM325.709 26.1163H328.034V28.4419H325.709V26.1163ZM323.383 26.1163H325.709V28.4419H323.383V26.1163ZM323.383 28.4419H325.709V30.7674H323.383V28.4419ZM325.709 28.4419H328.034V30.7674H325.709V28.4419ZM328.034 28.4419H330.36V30.7674H328.034V28.4419ZM330.36 28.4419H332.685V30.7674H330.36V28.4419ZM332.685 28.4419H335.011V30.7674H332.685V28.4419ZM325.709 23.7907H328.034V26.1163H325.709V23.7907ZM328.034 23.7907H330.36V26.1163H328.034V23.7907ZM325.709 33.093H328.034V35.4186H325.709V33.093ZM321.057 28.4419H323.383V30.7674H321.057V28.4419ZM323.383 30.7674H325.709V33.093H323.383V30.7674ZM321.057 26.1163H323.383V28.4419H321.057V26.1163ZM323.383 23.7907H325.709V26.1163H323.383V23.7907ZM321.057 23.7907H323.383V26.1163H321.057V23.7907ZM323.383 21.4651H325.709V23.7907H323.383V21.4651ZM325.709 21.4651H328.034V23.7907H325.709V21.4651ZM318.732 26.1163H321.057V28.4419H318.732V26.1163Z" fill="#695D3C"/>
</g>
<defs>
<filter id="filter0_i_127_285" x="0" y="0.534912" width="358.267" height="64.4651" filterUnits="userSpaceOnUse" color-interpolation-filters="sRGB">
<feFlood flood-opacity="0" result="BackgroundImageFix"/>
<feBlend mode="normal" in="SourceGraphic" in2="BackgroundImageFix" result="shape"/>
<feColorMatrix in="SourceAlpha" type="matrix" values="0 0 0 0 0 0 0 0 0 0 0 0 0 0 0 0 0 0 127 0" result="hardAlpha"/>
<feOffset dy="4"/>
<feGaussianBlur stdDeviation="2"/>
<feComposite in2="hardAlpha" operator="arithmetic" k2="-1" k3="1"/>
<feColorMatrix type="matrix" values="0 0 0 0 0 0 0 0 0 0 0 0 0 0 0 0 0 0 0.25 0"/>
<feBlend mode="normal" in2="shape" result="effect1_innerShadow_127_285"/>
</filter>
</defs>
</svg>
