<svg width="211" height="37" viewBox="0 0 211 37" fill="none" xmlns="http://www.w3.org/2000/svg">
<g filter="url(#filter0_i_47_12951)">
<path d="M9.8 0.899997V15.25C9.8 15.7833 9.91667 16.1667 10.15 16.4C10.4167 16.6333 10.9833 16.75 11.85 16.75H15.55V21.5H9.2C7.3 21.5 5.76667 21.3 4.6 20.9C3.46667 20.5 2.61667 19.8 2.05 18.8C1.51667 17.7667 1.16667 16.6667 1 15.5C0.866667 14.3333 0.8 12.7667 0.8 10.8C0.8 8.8 0.866667 7.28333 1 6.25C1.16667 5.21667 1.51667 4.25 2.05 3.35C2.61667 2.45 3.46667 1.81666 4.6 1.45C5.76667 1.08333 7.3 0.899997 9.2 0.899997H9.8ZM17.55 16.75H18.15C19.5833 16.75 20.6833 16.7833 21.45 16.85C22.25 16.8833 23.0167 17.0333 23.75 17.3C24.4833 17.5333 24.9833 17.8167 25.25 18.15C25.55 18.4833 25.8167 19.0667 26.05 19.9C26.3167 20.7 26.4667 21.5667 26.5 22.5C26.5333 23.4333 26.55 24.7667 26.55 26.5C26.55 28.2333 26.5333 29.6167 26.5 30.65C26.4667 31.65 26.3167 32.6167 26.05 33.55C25.8167 34.45 25.55 35.0833 25.25 35.45C24.9833 35.8167 24.4833 36.15 23.75 36.45C23.0167 36.7167 22.25 36.8833 21.45 36.95C20.6833 36.9833 19.5833 37 18.15 37H17.55V16.75ZM1.5 25.85H7.8C8.26667 25.85 8.55 25.9167 8.65 26.05C8.75 26.1833 8.8 26.4667 8.8 26.9V30.8C8.8 31.3333 8.86667 31.7167 9 31.95C9.16667 32.15 9.55 32.25 10.15 32.25H15.55V37H8.2C5.76667 37 3.91667 36.5833 2.65 35.75C1.41667 34.9167 0.8 33.4667 0.8 31.4V26.9C0.8 26.2 1.03333 25.85 1.5 25.85ZM11.8 0.849998H18.15C20.5833 0.849998 22.4167 1.26666 23.65 2.1C24.9167 2.93333 25.55 4.38333 25.55 6.45V10.95C25.55 11.65 25.3167 12 24.85 12H18.55C18.0833 12 17.8 11.9333 17.7 11.8C17.6 11.6667 17.55 11.3833 17.55 10.95V7.05C17.55 6.51667 17.4667 6.15 17.3 5.95C17.1667 5.71667 16.8 5.6 16.2 5.6H11.8V0.849998ZM54.4012 12H61.2012C64.8345 12 66.6512 13.7833 66.6512 17.35V37H60.9512C60.4178 37 59.9845 36.8167 59.6512 36.45C59.3178 36.0833 59.1512 35.6 59.1512 35V17.25C59.1512 16.7167 59.0178 16.3333 58.7512 16.1C58.5178 15.8667 57.9678 15.75 57.1012 15.75H54.4012V12ZM32.1012 12H35.1512C36.6178 12 37.7178 12.3667 38.4512 13.1C39.2178 13.8 39.6012 14.7167 39.6012 15.85V37H33.9012C33.3678 37 32.9345 36.8167 32.6012 36.45C32.2678 36.0833 32.1012 35.6 32.1012 35V12ZM40.8512 12H47.6512C51.2845 12 53.1012 13.7833 53.1012 17.35V37H47.4012C46.8678 37 46.4345 36.8167 46.1012 36.45C45.7678 36.0833 45.6012 35.6 45.6012 35V17.25C45.6012 16.7167 45.4678 16.3333 45.2012 16.1C44.9678 15.8667 44.4178 15.75 43.5512 15.75H40.8512V12ZM84.4855 15.75H81.7855C80.7522 15.75 80.1689 15.9333 80.0355 16.3C79.8355 16.7333 79.7355 17.35 79.7355 18.15V30.85C79.7355 30.9167 79.7355 31.1167 79.7355 31.45C79.7355 31.7833 79.7689 32.0667 79.8355 32.3C79.9689 32.9333 80.6189 33.25 81.7855 33.25H84.4855V37H79.6355C78.3689 37 77.3355 36.95 76.5355 36.85C75.7355 36.7167 75.0355 36.45 74.4355 36.05C73.8355 35.65 73.3855 35.2167 73.0855 34.75C72.7855 34.25 72.5355 33.4667 72.3355 32.4C72.1022 30.9 71.9855 28.8 71.9855 26.1C71.9855 23.4 72.0022 21.5833 72.0355 20.65C72.0689 19.6833 72.1189 18.6667 72.1855 17.6C72.2855 16.5333 72.4355 15.75 72.6355 15.25C72.8689 14.75 73.1522 14.25 73.4855 13.75C73.8522 13.2167 74.3189 12.85 74.8855 12.65C76.1189 12.2167 77.7022 12 79.6355 12H84.4855V15.75ZM95.7355 36.65C95.7355 36.8833 95.6689 37 95.5355 37H91.4355C89.5689 37 88.1855 36.5667 87.2855 35.7C86.4189 34.8333 85.9855 33.4167 85.9855 31.45V12H88.0355C90.1355 12 91.5689 12.5 92.3355 13.5C93.1022 14.4667 93.4855 15.75 93.4855 17.35V31.35C93.4855 32.3833 93.7022 32.9667 94.1355 33.1C94.3689 33.2 94.6855 33.25 95.0855 33.25H95.3355C95.6022 33.25 95.7355 33.3667 95.7355 33.6V36.65ZM105.029 12H111.029C111.229 12 111.329 12.1167 111.329 12.35V15.4C111.329 15.6333 111.196 15.75 110.929 15.75H108.679C107.879 15.75 107.413 15.9 107.279 16.2C107.146 16.6333 107.079 17.1167 107.079 17.65V33.15C107.079 34.2833 106.696 35.2167 105.929 35.95C105.196 36.65 104.096 37 102.629 37H99.5793V17.55C99.5793 15.5833 100.013 14.1667 100.879 13.3C101.779 12.4333 103.163 12 105.029 12ZM127.858 36.6C127.858 36.8 127.758 36.9333 127.558 37H123.758C121.324 37 119.558 36.5167 118.458 35.55C117.358 34.5833 116.808 32.8833 116.808 30.45V15.85H114.258C113.424 15.85 113.008 15.35 113.008 14.35V12H116.808V0.849998H119.858C121.324 0.849998 122.424 1.21666 123.158 1.95C123.924 2.68333 124.308 3.61667 124.308 4.75V31.35C124.308 32.5833 125.008 33.2 126.408 33.2H127.458C127.724 33.2 127.858 33.3167 127.858 33.55V36.6ZM129.408 12V14.35C129.408 15.35 128.991 15.85 128.158 15.85H125.558V12H129.408ZM141.937 0.849998V30.8C141.937 31.3 142.054 31.6667 142.287 31.9C142.554 32.1333 143.12 32.25 143.987 32.25H147.687V37H141.337C140.004 37 138.887 36.9 137.987 36.7C137.12 36.5 136.354 36.1 135.687 35.5C135.054 34.8667 134.554 34.1667 134.187 33.4C133.854 32.6333 133.587 31.4833 133.387 29.95C133.087 27.65 132.937 24.5667 132.937 20.7C132.937 16.8 132.954 14.05 132.987 12.45C133.054 10.85 133.187 9.3 133.387 7.8C133.587 6.26666 133.854 5.13333 134.187 4.4C134.554 3.63333 135.054 2.95 135.687 2.35C136.354 1.71667 137.12 1.31667 137.987 1.15C138.887 0.949998 140.004 0.849998 141.337 0.849998H141.937ZM143.937 17.3H152.737C156.004 17.3 157.637 18.8 157.637 21.8V32.2C157.637 34.2667 157.47 35.5833 157.137 36.15C156.837 36.7167 155.937 37 154.437 37H149.687V23.5C149.687 22.9667 149.604 22.6 149.437 22.4C149.304 22.1667 148.937 22.05 148.337 22.05H143.937V17.3ZM143.937 0.849998H150.287C152.72 0.849998 154.554 1.26666 155.787 2.1C157.054 2.93333 157.687 4.38333 157.687 6.45V10.95C157.687 11.65 157.454 12 156.987 12H150.687C150.22 12 149.937 11.9333 149.837 11.8C149.737 11.6667 149.687 11.3833 149.687 10.95V7.05C149.687 6.51667 149.604 6.15 149.437 5.95C149.304 5.71667 148.937 5.6 148.337 5.6H143.937V0.849998ZM172.544 12H177.394C178.661 12 179.694 12.0667 180.494 12.2C181.294 12.3 181.994 12.55 182.594 12.95C183.194 13.35 183.644 13.8 183.944 14.3C184.244 14.7667 184.477 15.5333 184.644 16.6C184.911 18.1 185.044 20.2 185.044 22.9C185.044 25.6 185.027 27.4333 184.994 28.4C184.961 29.3333 184.894 30.3333 184.794 31.4C184.727 32.4667 184.577 33.25 184.344 33.75C184.144 34.25 183.861 34.7667 183.494 35.3C183.161 35.8 182.711 36.15 182.144 36.35C180.911 36.7833 179.327 37 177.394 37H177.294V18.15C177.294 18.0833 177.294 17.8833 177.294 17.55C177.294 17.2167 177.277 16.9333 177.244 16.7C177.077 16.0667 176.411 15.75 175.244 15.75H172.544V12ZM171.044 12V30.85C171.044 30.9167 171.044 31.1167 171.044 31.45C171.044 31.7833 171.077 32.0667 171.144 32.3C171.277 32.9333 171.927 33.25 173.094 33.25H175.794V37H170.944C169.677 37 168.644 36.95 167.844 36.85C167.044 36.7167 166.344 36.45 165.744 36.05C165.144 35.65 164.694 35.2167 164.394 34.75C164.094 34.25 163.844 33.4667 163.644 32.4C163.411 30.9 163.294 28.8 163.294 26.1C163.294 23.4 163.311 21.5833 163.344 20.65C163.377 19.6833 163.427 18.6667 163.494 17.6C163.594 16.5333 163.744 15.75 163.944 15.25C164.177 14.75 164.461 14.25 164.794 13.75C165.161 13.2167 165.627 12.85 166.194 12.65C167.427 12.2167 169.011 12 170.944 12H171.044ZM210.35 12V29.2C210.35 32.9333 209.166 35.3 206.8 36.3C205.766 36.7667 204.466 37 202.9 37H201.1V33.25C202.266 33.25 202.85 32.4167 202.85 30.75V14.05C202.85 12.6833 203.45 12 204.65 12H210.35ZM190.35 12H196.05C197.25 12 197.85 12.6833 197.85 14.05V30.75C197.85 32.4167 198.433 33.25 199.6 33.25V37H197.8C194.666 37 192.6 36.1333 191.6 34.4C190.766 33.0333 190.35 31.3 190.35 29.2V12Z" fill="#695D3C"/>
</g>
<defs>
<filter id="filter0_i_47_12951" x="0.799805" y="0.850098" width="209.55" height="40.1499" filterUnits="userSpaceOnUse" color-interpolation-filters="sRGB">
<feFlood flood-opacity="0" result="BackgroundImageFix"/>
<feBlend mode="normal" in="SourceGraphic" in2="BackgroundImageFix" result="shape"/>
<feColorMatrix in="SourceAlpha" type="matrix" values="0 0 0 0 0 0 0 0 0 0 0 0 0 0 0 0 0 0 127 0" result="hardAlpha"/>
<feOffset dy="4"/>
<feGaussianBlur stdDeviation="2"/>
<feComposite in2="hardAlpha" operator="arithmetic" k2="-1" k3="1"/>
<feColorMatrix type="matrix" values="0 0 0 0 0 0 0 0 0 0 0 0 0 0 0 0 0 0 0.25 0"/>
<feBlend mode="normal" in2="shape" result="effect1_innerShadow_47_12951"/>
</filter>
</defs>
</svg>
