<svg width="30" height="30" viewBox="0 0 30 30" fill="none" xmlns="http://www.w3.org/2000/svg">
<g filter="url(#filter0_i_47_12940)">
<g filter="url(#filter1_i_47_12940)">
<circle cx="15" cy="15" r="15" fill="#78601D"/>
</g>
<path d="M20.9825 22.0318C20.2838 21.0886 19.3798 20.3237 18.3417 19.7974C17.3036 19.2711 16.1599 18.9976 15.0005 18.9987C13.8411 18.9976 12.6974 19.2711 11.6593 19.7974C10.6213 20.3237 9.71724 21.0886 9.0185 22.0318M20.9825 22.0318C22.346 20.7953 23.3076 19.1655 23.7417 17.3584C24.1758 15.5513 24.0608 13.6524 23.412 11.9135C22.7632 10.1745 21.6112 8.67778 20.1089 7.62167C18.6066 6.56556 16.8248 6 15 6C13.1752 6 11.3934 6.56556 9.89111 7.62167C8.38878 8.67778 7.23683 10.1745 6.58804 11.9135C5.93924 13.6524 5.82425 15.5513 6.25832 17.3584C6.69239 19.1655 7.655 20.7953 9.0185 22.0318M20.9825 22.0318C19.3365 23.5287 17.2061 24.3545 15.0005 24.3513C12.7945 24.3547 10.6647 23.5289 9.0185 22.0318M18.0005 12.8815C18.0005 13.6927 17.6844 14.4707 17.1218 15.0443C16.5592 15.6179 15.7962 15.9401 15.0005 15.9401C14.2049 15.9401 13.4418 15.6179 12.8792 15.0443C12.3166 14.4707 12.0005 13.6927 12.0005 12.8815C12.0005 12.0703 12.3166 11.2924 12.8792 10.7188C13.4418 10.1452 14.2049 9.82294 15.0005 9.82294C15.7962 9.82294 16.5592 10.1452 17.1218 10.7188C17.6844 11.2924 18.0005 12.0703 18.0005 12.8815Z" stroke="white" stroke-width="1.5" stroke-linecap="round" stroke-linejoin="round"/>
</g>
<defs>
<filter id="filter0_i_47_12940" x="0" y="0" width="30" height="32" filterUnits="userSpaceOnUse" color-interpolation-filters="sRGB">
<feFlood flood-opacity="0" result="BackgroundImageFix"/>
<feBlend mode="normal" in="SourceGraphic" in2="BackgroundImageFix" result="shape"/>
<feColorMatrix in="SourceAlpha" type="matrix" values="0 0 0 0 0 0 0 0 0 0 0 0 0 0 0 0 0 0 127 0" result="hardAlpha"/>
<feOffset dy="2"/>
<feGaussianBlur stdDeviation="1"/>
<feComposite in2="hardAlpha" operator="arithmetic" k2="-1" k3="1"/>
<feColorMatrix type="matrix" values="0 0 0 0 0 0 0 0 0 0 0 0 0 0 0 0 0 0 0.25 0"/>
<feBlend mode="normal" in2="shape" result="effect1_innerShadow_47_12940"/>
</filter>
<filter id="filter1_i_47_12940" x="-1" y="-4" width="31" height="34" filterUnits="userSpaceOnUse" color-interpolation-filters="sRGB">
<feFlood flood-opacity="0" result="BackgroundImageFix"/>
<feBlend mode="normal" in="SourceGraphic" in2="BackgroundImageFix" result="shape"/>
<feColorMatrix in="SourceAlpha" type="matrix" values="0 0 0 0 0 0 0 0 0 0 0 0 0 0 0 0 0 0 127 0" result="hardAlpha"/>
<feOffset dx="-1" dy="-4"/>
<feGaussianBlur stdDeviation="3"/>
<feComposite in2="hardAlpha" operator="arithmetic" k2="-1" k3="1"/>
<feColorMatrix type="matrix" values="0 0 0 0 0 0 0 0 0 0 0 0 0 0 0 0 0 0 0.25 0"/>
<feBlend mode="normal" in2="shape" result="effect1_innerShadow_47_12940"/>
</filter>
</defs>
</svg>
